{
	"patcher" : 	{
		"fileversion" : 1,
		"rect" : [ 652.0, 172.0, 1050.0, 322.0 ],
		"bglocked" : 0,
		"defrect" : [ 652.0, 172.0, 1050.0, 322.0 ],
		"openrect" : [ 0.0, 0.0, 0.0, 0.0 ],
		"openinpresentation" : 0,
		"default_fontsize" : 12.0,
		"default_fontface" : 0,
		"default_fontname" : "Arial",
		"gridonopen" : 0,
		"gridsize" : [ 15.0, 15.0 ],
		"gridsnaponopen" : 0,
		"toolbarvisible" : 1,
		"boxanimatetime" : 200,
		"imprint" : 0,
		"metadata" : [  ],
		"boxes" : [ 			{
				"box" : 				{
					"maxclass" : "newobj",
					"text" : "loadmess 2",
					"fontname" : "Arial",
					"numinlets" : 1,
					"fontsize" : 12.0,
					"id" : "obj-76",
					"numoutlets" : 1,
					"outlettype" : [ "" ],
					"patching_rect" : [ 157.5, 90.401978, 72.0, 20.0 ]
				}

			}
, 			{
				"box" : 				{
					"maxclass" : "newobj",
					"text" : "b",
					"fontname" : "Arial",
					"numinlets" : 1,
					"fontsize" : 12.0,
					"id" : "obj-75",
					"numoutlets" : 2,
					"outlettype" : [ "bang", "bang" ],
					"patching_rect" : [ 76.0, 170.0, 32.5, 20.0 ]
				}

			}
, 			{
				"box" : 				{
					"maxclass" : "newobj",
					"text" : "pvar sensPlay",
					"fontname" : "Arial",
					"numinlets" : 1,
					"fontsize" : 12.0,
					"id" : "obj-72",
					"numoutlets" : 1,
					"outlettype" : [ "" ],
					"patching_rect" : [ 157.5, 114.401978, 86.0, 20.0 ]
				}

			}
, 			{
				"box" : 				{
					"maxclass" : "newobj",
					"text" : "pvar bangPlay",
					"fontname" : "Arial",
					"numinlets" : 1,
					"fontsize" : 12.0,
					"id" : "obj-71",
					"numoutlets" : 1,
					"outlettype" : [ "" ],
					"patching_rect" : [ 75.5, 193.401978, 87.0, 20.0 ]
				}

			}
, 			{
				"box" : 				{
					"maxclass" : "message",
					"text" : "script move bangPlay 902 21",
					"fontname" : "Arial",
					"numinlets" : 2,
					"fontsize" : 11.595187,
					"id" : "obj-69",
					"numoutlets" : 1,
					"outlettype" : [ "" ],
					"patching_rect" : [ 344.0, 258.0, 160.0, 18.0 ]
				}

			}
, 			{
				"box" : 				{
					"maxclass" : "message",
					"text" : "script move bangPlay 752 21",
					"fontname" : "Arial",
					"numinlets" : 2,
					"fontsize" : 11.595187,
					"id" : "obj-68",
					"numoutlets" : 1,
					"outlettype" : [ "" ],
					"patching_rect" : [ 327.0, 237.0, 160.0, 18.0 ]
				}

			}
, 			{
				"box" : 				{
					"maxclass" : "message",
					"text" : "script move bangPlay 602 21",
					"fontname" : "Arial",
					"numinlets" : 2,
					"fontsize" : 11.595187,
					"id" : "obj-67",
					"numoutlets" : 1,
					"outlettype" : [ "" ],
					"patching_rect" : [ 312.0, 216.0, 160.0, 18.0 ]
				}

			}
, 			{
				"box" : 				{
					"maxclass" : "message",
					"text" : "script move bangPlay 452 21",
					"fontname" : "Arial",
					"numinlets" : 2,
					"fontsize" : 11.595187,
					"id" : "obj-66",
					"numoutlets" : 1,
					"outlettype" : [ "" ],
					"patching_rect" : [ 298.0, 195.0, 160.0, 18.0 ]
				}

			}
, 			{
				"box" : 				{
					"maxclass" : "message",
					"text" : "script move bangPlay 302 21",
					"fontname" : "Arial",
					"numinlets" : 2,
					"fontsize" : 11.595187,
					"id" : "obj-65",
					"numoutlets" : 1,
					"outlettype" : [ "" ],
					"patching_rect" : [ 284.0, 174.0, 160.0, 18.0 ]
				}

			}
, 			{
				"box" : 				{
					"maxclass" : "message",
					"text" : "script move bangPlay 152 21",
					"fontname" : "Arial",
					"numinlets" : 2,
					"fontsize" : 11.595187,
					"id" : "obj-64",
					"numoutlets" : 1,
					"outlettype" : [ "" ],
					"patching_rect" : [ 272.0, 153.0, 160.0, 18.0 ]
				}

			}
, 			{
				"box" : 				{
					"maxclass" : "message",
					"text" : "script move sensPlay 937 20",
					"fontname" : "Arial",
					"numinlets" : 2,
					"fontsize" : 11.595187,
					"id" : "obj-56",
					"numoutlets" : 1,
					"outlettype" : [ "" ],
					"patching_rect" : [ 574.0, 218.0, 159.0, 18.0 ]
				}

			}
, 			{
				"box" : 				{
					"maxclass" : "message",
					"text" : "script move sensPlay 787 20",
					"fontname" : "Arial",
					"numinlets" : 2,
					"fontsize" : 11.595187,
					"id" : "obj-55",
					"numoutlets" : 1,
					"outlettype" : [ "" ],
					"patching_rect" : [ 563.0, 196.0, 159.0, 18.0 ]
				}

			}
, 			{
				"box" : 				{
					"maxclass" : "message",
					"text" : "script move sensPlay 637 20",
					"fontname" : "Arial",
					"numinlets" : 2,
					"fontsize" : 11.595187,
					"id" : "obj-53",
					"numoutlets" : 1,
					"outlettype" : [ "" ],
					"patching_rect" : [ 551.0, 174.0, 159.0, 18.0 ]
				}

			}
, 			{
				"box" : 				{
					"maxclass" : "message",
					"text" : "script move sensPlay 487 20",
					"fontname" : "Arial",
					"numinlets" : 2,
					"fontsize" : 11.595187,
					"id" : "obj-51",
					"numoutlets" : 1,
					"outlettype" : [ "" ],
					"patching_rect" : [ 539.0, 152.0, 159.0, 18.0 ]
				}

			}
, 			{
				"box" : 				{
					"maxclass" : "newobj",
					"text" : "sel 1 2 3 4 5 6",
					"fontname" : "Arial",
					"numinlets" : 1,
					"fontsize" : 12.0,
					"id" : "obj-7",
					"numoutlets" : 7,
					"outlettype" : [ "bang", "bang", "bang", "bang", "bang", "bang", "" ],
					"patching_rect" : [ 347.0, 119.0, 100.0, 20.0 ]
				}

			}
, 			{
				"box" : 				{
					"maxclass" : "inlet",
					"numinlets" : 0,
					"id" : "obj-11",
					"numoutlets" : 1,
					"outlettype" : [ "" ],
					"patching_rect" : [ 284.0, 83.0, 25.0, 25.0 ],
					"comment" : ""
				}

			}
, 			{
				"box" : 				{
					"maxclass" : "outlet",
					"numinlets" : 1,
					"id" : "obj-6",
					"numoutlets" : 0,
					"patching_rect" : [ 50.0, 190.0, 25.0, 25.0 ],
					"comment" : ""
				}

			}
, 			{
				"box" : 				{
					"maxclass" : "newobj",
					"text" : "loadbang",
					"fontname" : "Arial",
					"numinlets" : 1,
					"fontsize" : 12.0,
					"id" : "obj-3",
					"numoutlets" : 1,
					"outlettype" : [ "bang" ],
					"patching_rect" : [ 16.5, 93.401978, 60.0, 20.0 ]
				}

			}
, 			{
				"box" : 				{
					"maxclass" : "newobj",
					"text" : "thispatcher",
					"fontname" : "Arial",
					"numinlets" : 1,
					"fontsize" : 12.0,
					"id" : "obj-2",
					"numoutlets" : 2,
					"outlettype" : [ "", "" ],
					"patching_rect" : [ 184.0, 290.0, 69.0, 20.0 ],
					"save" : [ "#N", "thispatcher", ";", "#Q", "end", ";" ]
				}

			}
, 			{
				"box" : 				{
					"maxclass" : "inlet",
					"numinlets" : 0,
					"id" : "obj-1",
					"numoutlets" : 1,
					"outlettype" : [ "" ],
					"patching_rect" : [ 184.0, 184.0, 25.0, 25.0 ],
					"comment" : ""
				}

			}
, 			{
				"box" : 				{
					"maxclass" : "message",
					"text" : "target 1",
					"fontname" : "Arial",
					"numinlets" : 2,
					"fontsize" : 11.595187,
					"id" : "obj-126",
					"numoutlets" : 1,
					"outlettype" : [ "" ],
					"patching_rect" : [ 16.5, 117.401978, 50.0, 18.0 ]
				}

			}
, 			{
				"box" : 				{
					"maxclass" : "newobj",
					"text" : "poly~ polyFunctions 1",
					"fontname" : "Arial",
					"numinlets" : 6,
					"fontsize" : 12.0,
					"id" : "obj-91",
					"numoutlets" : 1,
					"outlettype" : [ "" ],
					"patching_rect" : [ 49.5, 143.401978, 127.0, 20.0 ]
				}

			}
, 			{
				"box" : 				{
					"maxclass" : "comment",
					"text" : "seconds",
					"fontname" : "Arial",
					"numinlets" : 1,
					"fontsize" : 10.0,
					"id" : "obj-54",
					"numoutlets" : 0,
					"patching_rect" : [ 239.0, 20.0, 46.0, 18.0 ]
				}

			}
, 			{
				"box" : 				{
					"maxclass" : "comment",
					"text" : "X2",
					"fontname" : "Arial",
					"numinlets" : 1,
					"fontsize" : 10.0,
					"id" : "obj-226",
					"numoutlets" : 0,
					"patching_rect" : [ 395.395325, 20.0, 21.826141, 18.0 ]
				}

			}
, 			{
				"box" : 				{
					"maxclass" : "comment",
					"text" : "X1",
					"fontname" : "Arial",
					"numinlets" : 1,
					"fontsize" : 10.0,
					"id" : "obj-227",
					"numoutlets" : 0,
					"patching_rect" : [ 343.426056, 20.0, 21.826141, 18.0 ]
				}

			}
, 			{
				"box" : 				{
					"maxclass" : "comment",
					"text" : "X",
					"fontname" : "Arial",
					"numinlets" : 1,
					"fontsize" : 10.0,
					"id" : "obj-228",
					"numoutlets" : 0,
					"patching_rect" : [ 197.0, 20.0, 21.826141, 18.0 ]
				}

			}
, 			{
				"box" : 				{
					"maxclass" : "number",
					"fontname" : "Arial",
					"triangle" : 0,
					"numinlets" : 1,
					"fontsize" : 9.0,
					"id" : "obj-231",
					"numoutlets" : 2,
					"minimum" : 1,
					"outlettype" : [ "int", "bang" ],
					"maximum" : 300,
					"patching_rect" : [ 415.841614, 20.3302, 25.0, 17.0 ]
				}

			}
, 			{
				"box" : 				{
					"maxclass" : "number",
					"fontname" : "Arial",
					"triangle" : 0,
					"numinlets" : 1,
					"fontsize" : 9.0,
					"id" : "obj-232",
					"numoutlets" : 2,
					"minimum" : 1,
					"outlettype" : [ "int", "bang" ],
					"maximum" : 300,
					"patching_rect" : [ 362.841614, 20.3302, 25.0, 17.0 ]
				}

			}
, 			{
				"box" : 				{
					"maxclass" : "number",
					"fontname" : "Arial",
					"triangle" : 0,
					"numinlets" : 1,
					"fontsize" : 9.0,
					"id" : "obj-233",
					"numoutlets" : 2,
					"minimum" : 1,
					"outlettype" : [ "int", "bang" ],
					"maximum" : 300,
					"patching_rect" : [ 212.841629, 20.3302, 25.0, 17.0 ]
				}

			}
, 			{
				"box" : 				{
					"maxclass" : "textbutton",
					"varname" : "bangPlay",
					"fontname" : "Arial",
					"bgovercolor" : [ 0.698039, 0.698039, 0.698039, 0.0 ],
					"ignoreclick" : 1,
					"bordercolor" : [ 0.0, 0.0, 0.0, 1.0 ],
					"bgoveroncolor" : [ 0.501961, 0.501961, 0.501961, 0.0 ],
					"numinlets" : 1,
					"fontsize" : 9.0,
					"id" : "obj-43",
					"bgoncolor" : [ 0.376471, 0.635294, 0.94902, 1.0 ],
					"numoutlets" : 3,
					"border" : 1,
					"outputmode" : 0,
					"textoncolor" : [ 1.0, 1.0, 1.0, 0.0 ],
					"text" : "",
					"outlettype" : [ "", "", "int" ],
					"textoveroncolor" : [ 0.898039, 0.898039, 0.898039, 0.0 ],
					"rounded" : 2.0,
					"textovercolor" : [ 0.101961, 0.101961, 0.101961, 0.0 ],
					"textcolor" : [ 0.14902, 0.14902, 0.14902, 0.0 ],
					"patching_rect" : [ 902.0, 21.0, 32.0, 16.0 ],
					"borderoncolor" : [ 1.0, 0.360784, 0.360784, 0.0 ]
				}

			}
, 			{
				"box" : 				{
					"maxclass" : "textbutton",
					"fontname" : "Arial",
					"bgovercolor" : [ 0.698039, 0.698039, 0.698039, 0.0 ],
					"bordercolor" : [ 0.0, 0.0, 0.0, 1.0 ],
					"bgoveroncolor" : [ 0.501961, 0.501961, 0.501961, 0.0 ],
					"numinlets" : 1,
					"fontsize" : 9.0,
					"id" : "obj-40",
					"bgoncolor" : [ 0.376471, 0.635294, 0.94902, 1.0 ],
					"numoutlets" : 3,
					"border" : 1,
					"outputmode" : 0,
					"textoncolor" : [ 1.0, 1.0, 1.0, 0.0 ],
					"text" : "",
					"outlettype" : [ "", "", "int" ],
					"textoveroncolor" : [ 0.898039, 0.898039, 0.898039, 0.0 ],
					"rounded" : 2.0,
					"textovercolor" : [ 0.101961, 0.101961, 0.101961, 0.0 ],
					"textcolor" : [ 0.14902, 0.14902, 0.14902, 0.0 ],
					"patching_rect" : [ 1.5, 21.401978, 32.0, 16.0 ],
					"borderoncolor" : [ 1.0, 0.360784, 0.360784, 0.0 ]
				}

			}
, 			{
				"box" : 				{
					"maxclass" : "umenu",
					"fontname" : "Arial",
					"items" : [ "Manual", ",", "Every", "X", "sec", ",", "Random", "(X1-X2)", ",", "Trigger", "Main/1", ",", "Trigger", "Low/2", ",", "Trigger", "Mid/3", ",", "Trigger", "High/4" ],
					"numinlets" : 1,
					"fontsize" : 9.0,
					"id" : "obj-29",
					"numoutlets" : 3,
					"types" : [  ],
					"outlettype" : [ "int", "", "" ],
					"patching_rect" : [ 937.299988, 1.302002, 103.880005, 17.0 ]
				}

			}
, 			{
				"box" : 				{
					"maxclass" : "textbutton",
					"fontname" : "Arial",
					"numinlets" : 1,
					"fontsize" : 9.0,
					"id" : "obj-30",
					"numoutlets" : 3,
					"text" : "File",
					"outlettype" : [ "", "", "int" ],
					"rounded" : 4.0,
					"patching_rect" : [ 900.5, 1.401978, 34.0, 17.0 ]
				}

			}
, 			{
				"box" : 				{
					"maxclass" : "umenu",
					"fontname" : "Arial",
					"items" : [ "Manual", ",", "Every", "X", "sec", ",", "Random", "(X1-X2)", ",", "Trigger", "Main/1", ",", "Trigger", "Low/2", ",", "Trigger", "Mid/3", ",", "Trigger", "High/4" ],
					"numinlets" : 1,
					"fontsize" : 9.0,
					"id" : "obj-24",
					"numoutlets" : 3,
					"types" : [  ],
					"outlettype" : [ "int", "", "" ],
					"patching_rect" : [ 787.299988, 1.302002, 103.880005, 17.0 ]
				}

			}
, 			{
				"box" : 				{
					"maxclass" : "textbutton",
					"fontname" : "Arial",
					"numinlets" : 1,
					"fontsize" : 9.0,
					"id" : "obj-25",
					"numoutlets" : 3,
					"text" : "File",
					"outlettype" : [ "", "", "int" ],
					"rounded" : 4.0,
					"patching_rect" : [ 750.5, 1.401978, 34.0, 17.0 ]
				}

			}
, 			{
				"box" : 				{
					"maxclass" : "umenu",
					"fontname" : "Arial",
					"items" : [ "Manual", ",", "Every", "X", "sec", ",", "Random", "(X1-X2)", ",", "Trigger", "Main/1", ",", "Trigger", "Low/2", ",", "Trigger", "Mid/3", ",", "Trigger", "High/4" ],
					"numinlets" : 1,
					"fontsize" : 9.0,
					"id" : "obj-19",
					"numoutlets" : 3,
					"types" : [  ],
					"outlettype" : [ "int", "", "" ],
					"patching_rect" : [ 637.299988, 1.302002, 103.880005, 17.0 ]
				}

			}
, 			{
				"box" : 				{
					"maxclass" : "textbutton",
					"fontname" : "Arial",
					"numinlets" : 1,
					"fontsize" : 9.0,
					"id" : "obj-20",
					"numoutlets" : 3,
					"text" : "File",
					"outlettype" : [ "", "", "int" ],
					"rounded" : 4.0,
					"patching_rect" : [ 600.5, 1.401978, 34.0, 17.0 ]
				}

			}
, 			{
				"box" : 				{
					"maxclass" : "umenu",
					"fontname" : "Arial",
					"items" : [ "Manual", ",", "Every", "X", "sec", ",", "Random", "(X1-X2)", ",", "Trigger", "Main/1", ",", "Trigger", "Low/2", ",", "Trigger", "Mid/3", ",", "Trigger", "High/4" ],
					"numinlets" : 1,
					"fontsize" : 9.0,
					"id" : "obj-14",
					"numoutlets" : 3,
					"types" : [  ],
					"outlettype" : [ "int", "", "" ],
					"patching_rect" : [ 487.299988, 1.302002, 103.880005, 17.0 ]
				}

			}
, 			{
				"box" : 				{
					"maxclass" : "textbutton",
					"fontname" : "Arial",
					"numinlets" : 1,
					"fontsize" : 9.0,
					"id" : "obj-15",
					"numoutlets" : 3,
					"text" : "File",
					"outlettype" : [ "", "", "int" ],
					"rounded" : 4.0,
					"patching_rect" : [ 450.5, 1.401978, 34.0, 17.0 ]
				}

			}
, 			{
				"box" : 				{
					"maxclass" : "umenu",
					"fontname" : "Arial",
					"items" : [ "Manual", ",", "Every", "X", "sec", ",", "Random", "(X1-X2)", ",", "Trigger", "Main/1", ",", "Trigger", "Low/2", ",", "Trigger", "Mid/3", ",", "Trigger", "High/4" ],
					"numinlets" : 1,
					"fontsize" : 9.0,
					"id" : "obj-9",
					"numoutlets" : 3,
					"types" : [  ],
					"outlettype" : [ "int", "", "" ],
					"patching_rect" : [ 337.299988, 1.302002, 103.880005, 17.0 ]
				}

			}
, 			{
				"box" : 				{
					"maxclass" : "textbutton",
					"fontname" : "Arial",
					"numinlets" : 1,
					"fontsize" : 9.0,
					"id" : "obj-10",
					"numoutlets" : 3,
					"text" : "File",
					"outlettype" : [ "", "", "int" ],
					"rounded" : 4.0,
					"patching_rect" : [ 300.5, 1.401978, 34.0, 17.0 ]
				}

			}
, 			{
				"box" : 				{
					"maxclass" : "umenu",
					"fontname" : "Arial",
					"items" : [ "Manual", ",", "Every", "X", "sec", ",", "Random", "(X1-X2)", ",", "Trigger", "Main/1", ",", "Trigger", "Low/2", ",", "Trigger", "Mid/3", ",", "Trigger", "High/4" ],
					"numinlets" : 1,
					"fontsize" : 9.0,
					"id" : "obj-4",
					"numoutlets" : 3,
					"types" : [  ],
					"outlettype" : [ "int", "", "" ],
					"patching_rect" : [ 187.299988, 1.302002, 103.880005, 17.0 ]
				}

			}
, 			{
				"box" : 				{
					"maxclass" : "textbutton",
					"fontname" : "Arial",
					"numinlets" : 1,
					"fontsize" : 9.0,
					"id" : "obj-5",
					"numoutlets" : 3,
					"text" : "File",
					"outlettype" : [ "", "", "int" ],
					"rounded" : 4.0,
					"patching_rect" : [ 150.5, 1.401978, 34.0, 17.0 ]
				}

			}
, 			{
				"box" : 				{
					"maxclass" : "umenu",
					"fontname" : "Arial",
					"items" : [ "Manual", ",", "Every", "X", "sec", ",", "Random", "(X1-X2)", ",", "Trigger", "Main/1", ",", "Trigger", "Low/2", ",", "Trigger", "Mid/3", ",", "Trigger", "High/4" ],
					"numinlets" : 1,
					"fontsize" : 9.0,
					"id" : "obj-262",
					"numoutlets" : 3,
					"types" : [  ],
					"outlettype" : [ "int", "", "" ],
					"patching_rect" : [ 37.299988, 1.302002, 103.880005, 17.0 ]
				}

			}
, 			{
				"box" : 				{
					"maxclass" : "textbutton",
					"fontname" : "Arial",
					"numinlets" : 1,
					"fontsize" : 9.0,
					"id" : "obj-258",
					"numoutlets" : 3,
					"text" : "File",
					"outlettype" : [ "", "", "int" ],
					"rounded" : 4.0,
					"patching_rect" : [ 0.5, 1.401978, 34.0, 17.0 ]
				}

			}
, 			{
				"box" : 				{
					"maxclass" : "slider",
					"varname" : "sensPlay",
					"orientation" : 1,
					"numinlets" : 1,
					"id" : "obj-13",
					"numoutlets" : 1,
					"outlettype" : [ "" ],
					"patching_rect" : [ 937.0, 20.0, 50.832405, 18.044296 ],
					"size" : 9.0
				}

			}
 ],
		"lines" : [ 			{
				"patchline" : 				{
					"source" : [ "obj-75", 0 ],
					"destination" : [ "obj-71", 0 ],
					"hidden" : 0,
					"midpoints" : [  ]
				}

			}
, 			{
				"patchline" : 				{
					"source" : [ "obj-91", 0 ],
					"destination" : [ "obj-75", 0 ],
					"hidden" : 0,
					"midpoints" : [ 59.0, 165.0, 85.5, 165.0 ]
				}

			}
, 			{
				"patchline" : 				{
					"source" : [ "obj-3", 0 ],
					"destination" : [ "obj-126", 0 ],
					"hidden" : 0,
					"midpoints" : [  ]
				}

			}
, 			{
				"patchline" : 				{
					"source" : [ "obj-1", 0 ],
					"destination" : [ "obj-2", 0 ],
					"hidden" : 0,
					"midpoints" : [  ]
				}

			}
, 			{
				"patchline" : 				{
					"source" : [ "obj-56", 0 ],
					"destination" : [ "obj-2", 0 ],
					"hidden" : 0,
					"midpoints" : [ 583.5, 284.0, 193.5, 284.0 ]
				}

			}
, 			{
				"patchline" : 				{
					"source" : [ "obj-55", 0 ],
					"destination" : [ "obj-2", 0 ],
					"hidden" : 0,
					"midpoints" : [ 572.5, 284.0, 193.5, 284.0 ]
				}

			}
, 			{
				"patchline" : 				{
					"source" : [ "obj-53", 0 ],
					"destination" : [ "obj-2", 0 ],
					"hidden" : 0,
					"midpoints" : [ 560.5, 284.0, 193.5, 284.0 ]
				}

			}
, 			{
				"patchline" : 				{
					"source" : [ "obj-51", 0 ],
					"destination" : [ "obj-2", 0 ],
					"hidden" : 0,
					"midpoints" : [ 548.5, 284.0, 193.5, 284.0 ]
				}

			}
, 			{
				"patchline" : 				{
					"source" : [ "obj-11", 0 ],
					"destination" : [ "obj-91", 0 ],
					"hidden" : 0,
					"midpoints" : [ 293.5, 138.0, 59.0, 138.0 ]
				}

			}
, 			{
				"patchline" : 				{
					"source" : [ "obj-126", 0 ],
					"destination" : [ "obj-91", 0 ],
					"hidden" : 0,
					"midpoints" : [ 26.0, 138.0, 59.0, 138.0 ]
				}

			}
, 			{
				"patchline" : 				{
					"source" : [ "obj-40", 0 ],
					"destination" : [ "obj-91", 1 ],
					"hidden" : 1,
					"midpoints" : [ 11.0, 42.0, 80.599998, 42.0 ]
				}

			}
, 			{
				"patchline" : 				{
					"source" : [ "obj-233", 0 ],
					"destination" : [ "obj-91", 2 ],
					"hidden" : 1,
					"midpoints" : [ 222.341629, 42.0, 102.199997, 42.0 ]
				}

			}
, 			{
				"patchline" : 				{
					"source" : [ "obj-232", 0 ],
					"destination" : [ "obj-91", 3 ],
					"hidden" : 1,
					"midpoints" : [ 372.341614, 42.0, 123.800003, 42.0 ]
				}

			}
, 			{
				"patchline" : 				{
					"source" : [ "obj-231", 0 ],
					"destination" : [ "obj-91", 4 ],
					"hidden" : 1,
					"midpoints" : [ 425.341614, 42.0, 145.399994, 42.0 ]
				}

			}
, 			{
				"patchline" : 				{
					"source" : [ "obj-91", 0 ],
					"destination" : [ "obj-6", 0 ],
					"hidden" : 0,
					"midpoints" : [  ]
				}

			}
, 			{
				"patchline" : 				{
					"source" : [ "obj-11", 0 ],
					"destination" : [ "obj-7", 0 ],
					"hidden" : 0,
					"midpoints" : [ 293.5, 112.0, 356.5, 112.0 ]
				}

			}
, 			{
				"patchline" : 				{
					"source" : [ "obj-7", 2 ],
					"destination" : [ "obj-51", 0 ],
					"hidden" : 0,
					"midpoints" : [ 383.5, 143.0, 548.5, 143.0 ]
				}

			}
, 			{
				"patchline" : 				{
					"source" : [ "obj-7", 3 ],
					"destination" : [ "obj-53", 0 ],
					"hidden" : 0,
					"midpoints" : [ 397.0, 143.0, 560.5, 143.0 ]
				}

			}
, 			{
				"patchline" : 				{
					"source" : [ "obj-7", 4 ],
					"destination" : [ "obj-55", 0 ],
					"hidden" : 0,
					"midpoints" : [ 410.5, 143.0, 572.5, 143.0 ]
				}

			}
, 			{
				"patchline" : 				{
					"source" : [ "obj-7", 5 ],
					"destination" : [ "obj-56", 0 ],
					"hidden" : 0,
					"midpoints" : [ 424.0, 143.0, 583.5, 143.0 ]
				}

			}
, 			{
				"patchline" : 				{
					"source" : [ "obj-7", 0 ],
					"destination" : [ "obj-64", 0 ],
					"hidden" : 0,
					"midpoints" : [ 356.5, 148.0, 281.5, 148.0 ]
				}

			}
, 			{
				"patchline" : 				{
					"source" : [ "obj-7", 1 ],
					"destination" : [ "obj-65", 0 ],
					"hidden" : 0,
					"midpoints" : [ 370.0, 148.0, 293.5, 148.0 ]
				}

			}
, 			{
				"patchline" : 				{
					"source" : [ "obj-7", 2 ],
					"destination" : [ "obj-66", 0 ],
					"hidden" : 0,
					"midpoints" : [ 383.5, 148.0, 307.5, 148.0 ]
				}

			}
, 			{
				"patchline" : 				{
					"source" : [ "obj-7", 3 ],
					"destination" : [ "obj-67", 0 ],
					"hidden" : 0,
					"midpoints" : [ 397.0, 148.0, 321.5, 148.0 ]
				}

			}
, 			{
				"patchline" : 				{
					"source" : [ "obj-7", 4 ],
					"destination" : [ "obj-68", 0 ],
					"hidden" : 0,
					"midpoints" : [ 410.5, 148.0, 336.5, 148.0 ]
				}

			}
, 			{
				"patchline" : 				{
					"source" : [ "obj-7", 5 ],
					"destination" : [ "obj-69", 0 ],
					"hidden" : 0,
					"midpoints" : [ 424.0, 148.0, 353.5, 148.0 ]
				}

			}
, 			{
				"patchline" : 				{
					"source" : [ "obj-64", 0 ],
					"destination" : [ "obj-2", 0 ],
					"hidden" : 0,
					"midpoints" : [ 281.5, 284.0, 193.5, 284.0 ]
				}

			}
, 			{
				"patchline" : 				{
					"source" : [ "obj-65", 0 ],
					"destination" : [ "obj-2", 0 ],
					"hidden" : 0,
					"midpoints" : [ 293.5, 284.0, 193.5, 284.0 ]
				}

			}
, 			{
				"patchline" : 				{
					"source" : [ "obj-66", 0 ],
					"destination" : [ "obj-2", 0 ],
					"hidden" : 0,
					"midpoints" : [ 307.5, 284.0, 193.5, 284.0 ]
				}

			}
, 			{
				"patchline" : 				{
					"source" : [ "obj-67", 0 ],
					"destination" : [ "obj-2", 0 ],
					"hidden" : 0,
					"midpoints" : [ 321.5, 284.0, 193.5, 284.0 ]
				}

			}
, 			{
				"patchline" : 				{
					"source" : [ "obj-68", 0 ],
					"destination" : [ "obj-2", 0 ],
					"hidden" : 0,
					"midpoints" : [ 336.5, 284.0, 193.5, 284.0 ]
				}

			}
, 			{
				"patchline" : 				{
					"source" : [ "obj-69", 0 ],
					"destination" : [ "obj-2", 0 ],
					"hidden" : 0,
					"midpoints" : [ 353.5, 284.0, 193.5, 284.0 ]
				}

			}
, 			{
				"patchline" : 				{
					"source" : [ "obj-72", 0 ],
					"destination" : [ "obj-91", 5 ],
					"hidden" : 0,
					"midpoints" : [  ]
				}

			}
, 			{
				"patchline" : 				{
					"source" : [ "obj-76", 0 ],
					"destination" : [ "obj-72", 0 ],
					"hidden" : 0,
					"midpoints" : [  ]
				}

			}
, 			{
				"patchline" : 				{
					"source" : [ "obj-76", 0 ],
					"destination" : [ "obj-233", 0 ],
					"hidden" : 1,
					"midpoints" : [  ]
				}

			}
, 			{
				"patchline" : 				{
					"source" : [ "obj-76", 0 ],
					"destination" : [ "obj-231", 0 ],
					"hidden" : 1,
					"midpoints" : [  ]
				}

			}
 ]
	}

}
