{
	"patcher" : 	{
		"fileversion" : 1,
		"rect" : [ 226.0, 124.0, 1022.0, 661.0 ],
		"bgcolor" : [ 0.0, 0.0, 0.0, 1.0 ],
		"bglocked" : 1,
		"defrect" : [ 226.0, 124.0, 1022.0, 661.0 ],
		"openrect" : [ 0.0, 0.0, 0.0, 0.0 ],
		"openinpresentation" : 1,
		"default_fontsize" : 12.0,
		"default_fontface" : 0,
		"default_fontname" : "Arial",
		"gridonopen" : 0,
		"gridsize" : [ 15.0, 15.0 ],
		"gridsnaponopen" : 0,
		"toolbarvisible" : 0,
		"boxanimatetime" : 200,
		"imprint" : 0,
		"enablehscroll" : 1,
		"enablevscroll" : 1,
		"devicewidth" : 0.0,
		"title" : "VJ Mode",
		"boxes" : [ 			{
				"box" : 				{
					"maxclass" : "panel",
					"patching_rect" : [ 704.0, 4.0, 310.0, 476.0 ],
					"rounded" : 0,
					"presentation" : 1,
					"bgcolor" : [ 0.129412, 0.129412, 0.129412, 1.0 ],
					"grad1" : [ 0.0, 0.2, 0.2, 1.0 ],
					"id" : "obj-5",
					"angle" : 90.0,
					"numinlets" : 1,
					"grad2" : [ 0.129412, 0.129412, 0.129412, 1.0 ],
					"numoutlets" : 0,
					"presentation_rect" : [ 586.0, 238.0, 71.0, 14.0 ]
				}

			}
, 			{
				"box" : 				{
					"maxclass" : "newobj",
					"text" : "standalone",
					"patching_rect" : [ 1049.0, 638.0, 62.0, 18.0 ],
					"id" : "obj-1",
					"fontname" : "Arial",
					"numinlets" : 1,
					"numoutlets" : 0,
					"fontsize" : 10.435669,
					"saved_object_attributes" : 					{
						"noloadbangdefeating" : 0,
						"usesearchpath" : 0,
						"cantclosetoplevelpatchers" : 1,
						"preffilename" : "Max 5 Preferences",
						"searchformissingfiles" : 1,
						"allwindowsactive" : 0,
						"overdrive" : 0,
						"midisupport" : 1,
						"statusvisible" : 0,
						"audiosupport" : 1
					}

				}

			}
, 			{
				"box" : 				{
					"maxclass" : "toggle",
					"hint" : "",
					"prototypename" : "Arial9",
					"patching_rect" : [ 1049.0, 544.0, 18.0, 18.0 ],
					"presentation" : 1,
					"id" : "obj-84",
					"numinlets" : 1,
					"numoutlets" : 1,
					"presentation_rect" : [ 1049.0, 544.0, 18.0, 18.0 ],
					"outlettype" : [ "int" ]
				}

			}
, 			{
				"box" : 				{
					"maxclass" : "toggle",
					"hint" : "",
					"prototypename" : "Arial9",
					"patching_rect" : [ 1086.0, 544.0, 18.0, 18.0 ],
					"presentation" : 1,
					"id" : "obj-66",
					"numinlets" : 1,
					"numoutlets" : 1,
					"presentation_rect" : [ 1086.0, 544.0, 18.0, 18.0 ],
					"outlettype" : [ "int" ]
				}

			}
, 			{
				"box" : 				{
					"maxclass" : "bpatcher",
					"varname" : "Mixer",
					"patching_rect" : [ 359.0, 482.0, 310.0, 173.0 ],
					"presentation" : 1,
					"name" : "mixer.maxpat",
					"id" : "obj-49",
					"numinlets" : 2,
					"numoutlets" : 1,
					"presentation_rect" : [ 359.0, 484.0, 312.0, 176.0 ],
					"outlettype" : [ "jit_gl_texture" ],
					"args" : [  ]
				}

			}
, 			{
				"box" : 				{
					"maxclass" : "newobj",
					"text" : "thispatcher",
					"patching_rect" : [ 1049.0, 593.0, 62.0, 18.0 ],
					"id" : "obj-142",
					"fontname" : "Arial",
					"numinlets" : 1,
					"numoutlets" : 2,
					"fontsize" : 10.435669,
					"outlettype" : [ "", "" ],
					"save" : [ "#N", "thispatcher", ";", "#Q", "window", "flags", "nogrow", "close", "nozoom", "nofloat", "menu", "minimize", ";", "#Q", "window", "constrain", 2, 2, 32768, 32768, ";", "#Q", "window", "size", 226, 124, 1248, 785, ";", "#Q", "window", "title", ";", "#Q", "window", "exec", ";", "#Q", "savewindow", 1, ";", "#Q", "end", ";" ]
				}

			}
, 			{
				"box" : 				{
					"maxclass" : "newobj",
					"text" : "p View",
					"patching_rect" : [ 1049.0, 567.0, 56.0, 20.0 ],
					"color" : [ 0.929412, 0.360784, 0.866667, 1.0 ],
					"id" : "obj-7",
					"fontname" : "Arial",
					"numinlets" : 2,
					"numoutlets" : 1,
					"fontsize" : 11.595187,
					"outlettype" : [ "" ],
					"patcher" : 					{
						"fileversion" : 1,
						"rect" : [ 773.0, 202.0, 647.0, 478.0 ],
						"bglocked" : 0,
						"defrect" : [ 773.0, 202.0, 647.0, 478.0 ],
						"openrect" : [ 0.0, 0.0, 0.0, 0.0 ],
						"openinpresentation" : 0,
						"default_fontsize" : 9.0,
						"default_fontface" : 0,
						"default_fontname" : "Arial",
						"gridonopen" : 0,
						"gridsize" : [ 15.0, 15.0 ],
						"gridsnaponopen" : 0,
						"toolbarvisible" : 1,
						"boxanimatetime" : 200,
						"imprint" : 0,
						"enablehscroll" : 1,
						"enablevscroll" : 1,
						"devicewidth" : 0.0,
						"boxes" : [ 							{
								"box" : 								{
									"maxclass" : "message",
									"text" : "window flags nogrow, window flags nozoom",
									"linecount" : 2,
									"patching_rect" : [ 310.0, 343.0, 113.0, 28.0 ],
									"id" : "obj-29",
									"fontname" : "Arial",
									"numinlets" : 2,
									"numoutlets" : 1,
									"fontsize" : 10.435669,
									"outlettype" : [ "" ]
								}

							}
, 							{
								"box" : 								{
									"maxclass" : "newobj",
									"text" : "t l",
									"patching_rect" : [ 466.0, 378.0, 19.0, 18.0 ],
									"id" : "obj-13",
									"fontname" : "Arial",
									"numinlets" : 1,
									"numoutlets" : 1,
									"fontsize" : 10.435669,
									"outlettype" : [ "" ]
								}

							}
, 							{
								"box" : 								{
									"maxclass" : "inlet",
									"prototypename" : "Arial9",
									"patching_rect" : [ 466.0, 257.0, 18.0, 18.0 ],
									"id" : "obj-5",
									"numinlets" : 0,
									"numoutlets" : 1,
									"outlettype" : [ "int" ],
									"comment" : ""
								}

							}
, 							{
								"box" : 								{
									"maxclass" : "toggle",
									"prototypename" : "Arial9",
									"patching_rect" : [ 466.0, 279.0, 18.0, 18.0 ],
									"id" : "obj-6",
									"numinlets" : 1,
									"numoutlets" : 1,
									"outlettype" : [ "int" ]
								}

							}
, 							{
								"box" : 								{
									"maxclass" : "newobj",
									"text" : "sel 1 0",
									"patching_rect" : [ 466.0, 301.0, 46.0, 18.0 ],
									"id" : "obj-8",
									"fontname" : "Arial",
									"numinlets" : 1,
									"numoutlets" : 3,
									"fontsize" : 10.435669,
									"outlettype" : [ "bang", "bang", "" ]
								}

							}
, 							{
								"box" : 								{
									"maxclass" : "message",
									"text" : "savewindow 1",
									"patching_rect" : [ 362.0, 428.0, 76.0, 16.0 ],
									"id" : "obj-1",
									"fontname" : "Arial",
									"numinlets" : 2,
									"numoutlets" : 1,
									"fontsize" : 10.435669,
									"outlettype" : [ "" ]
								}

							}
, 							{
								"box" : 								{
									"maxclass" : "newobj",
									"text" : "qlim",
									"patching_rect" : [ 43.0, 301.0, 32.5, 18.0 ],
									"id" : "obj-63",
									"fontname" : "Arial",
									"numinlets" : 2,
									"numoutlets" : 1,
									"fontsize" : 10.435669,
									"outlettype" : [ "" ]
								}

							}
, 							{
								"box" : 								{
									"maxclass" : "newobj",
									"text" : "qlim",
									"patching_rect" : [ 283.0, 301.0, 32.5, 18.0 ],
									"id" : "obj-62",
									"fontname" : "Arial",
									"numinlets" : 2,
									"numoutlets" : 1,
									"fontsize" : 10.435669,
									"outlettype" : [ "" ]
								}

							}
, 							{
								"box" : 								{
									"maxclass" : "newobj",
									"text" : "t l",
									"patching_rect" : [ 43.0, 378.0, 19.0, 18.0 ],
									"id" : "obj-37",
									"fontname" : "Arial",
									"numinlets" : 1,
									"numoutlets" : 1,
									"fontsize" : 10.435669,
									"outlettype" : [ "" ]
								}

							}
, 							{
								"box" : 								{
									"maxclass" : "message",
									"text" : "window flags nofloat, window exec",
									"patching_rect" : [ 466.0, 323.0, 170.0, 16.0 ],
									"id" : "obj-38",
									"fontname" : "Arial",
									"numinlets" : 2,
									"numoutlets" : 1,
									"fontsize" : 10.435669,
									"outlettype" : [ "" ]
								}

							}
, 							{
								"box" : 								{
									"maxclass" : "message",
									"text" : "window exec",
									"patching_rect" : [ 43.0, 323.0, 70.0, 16.0 ],
									"id" : "obj-39",
									"fontname" : "Arial",
									"numinlets" : 2,
									"numoutlets" : 1,
									"fontsize" : 10.435669,
									"outlettype" : [ "" ]
								}

							}
, 							{
								"box" : 								{
									"maxclass" : "newobj",
									"text" : "t b l b",
									"patching_rect" : [ 43.0, 279.0, 46.0, 18.0 ],
									"id" : "obj-40",
									"fontname" : "Arial",
									"numinlets" : 1,
									"numoutlets" : 3,
									"fontsize" : 10.435669,
									"outlettype" : [ "bang", "", "bang" ]
								}

							}
, 							{
								"box" : 								{
									"maxclass" : "message",
									"text" : "window flags grow, window flags zoom",
									"linecount" : 2,
									"patching_rect" : [ 70.0, 343.0, 100.0, 28.0 ],
									"id" : "obj-42",
									"fontname" : "Arial",
									"numinlets" : 2,
									"numoutlets" : 1,
									"fontsize" : 10.435669,
									"outlettype" : [ "" ]
								}

							}
, 							{
								"box" : 								{
									"maxclass" : "newobj",
									"text" : "prepend window size",
									"patching_rect" : [ 43.0, 257.0, 108.0, 18.0 ],
									"id" : "obj-43",
									"fontname" : "Arial",
									"numinlets" : 1,
									"numoutlets" : 1,
									"fontsize" : 10.435669,
									"outlettype" : [ "" ]
								}

							}
, 							{
								"box" : 								{
									"maxclass" : "comment",
									"text" : "Ymax",
									"patching_rect" : [ 208.0, 186.0, 37.0, 18.0 ],
									"id" : "obj-45",
									"fontname" : "Arial",
									"numinlets" : 1,
									"numoutlets" : 0,
									"fontsize" : 10.435669
								}

							}
, 							{
								"box" : 								{
									"maxclass" : "comment",
									"text" : "Xmax",
									"patching_rect" : [ 157.0, 186.0, 37.0, 18.0 ],
									"id" : "obj-46",
									"fontname" : "Arial",
									"numinlets" : 1,
									"numoutlets" : 0,
									"fontsize" : 10.435669
								}

							}
, 							{
								"box" : 								{
									"maxclass" : "comment",
									"text" : "Ymin",
									"patching_rect" : [ 105.0, 186.0, 34.0, 18.0 ],
									"id" : "obj-47",
									"fontname" : "Arial",
									"numinlets" : 1,
									"numoutlets" : 0,
									"fontsize" : 10.435669
								}

							}
, 							{
								"box" : 								{
									"maxclass" : "comment",
									"text" : "Xmin",
									"patching_rect" : [ 54.0, 186.0, 34.0, 18.0 ],
									"id" : "obj-48",
									"fontname" : "Arial",
									"numinlets" : 1,
									"numoutlets" : 0,
									"fontsize" : 10.435669
								}

							}
, 							{
								"box" : 								{
									"maxclass" : "comment",
									"text" : "pref.",
									"patching_rect" : [ 171.0, 147.0, 31.0, 18.0 ],
									"id" : "obj-49",
									"fontname" : "Arial",
									"numinlets" : 1,
									"numoutlets" : 0,
									"fontsize" : 10.435669
								}

							}
, 							{
								"box" : 								{
									"maxclass" : "newobj",
									"text" : "unpack 0 0 0 0",
									"patching_rect" : [ 43.0, 167.0, 173.0, 18.0 ],
									"id" : "obj-51",
									"fontname" : "Arial",
									"numinlets" : 1,
									"numoutlets" : 4,
									"fontsize" : 10.435669,
									"outlettype" : [ "int", "int", "int", "int" ]
								}

							}
, 							{
								"box" : 								{
									"maxclass" : "message",
									"text" : "120 60 1260 730",
									"patching_rect" : [ 43.0, 147.0, 89.0, 16.0 ],
									"id" : "obj-52",
									"fontname" : "Arial",
									"numinlets" : 2,
									"numoutlets" : 1,
									"fontsize" : 10.435669,
									"outlettype" : [ "" ]
								}

							}
, 							{
								"box" : 								{
									"maxclass" : "number",
									"patching_rect" : [ 197.0, 205.0, 50.0, 18.0 ],
									"id" : "obj-53",
									"fontname" : "Arial",
									"numinlets" : 1,
									"numoutlets" : 2,
									"fontsize" : 10.435669,
									"outlettype" : [ "int", "bang" ]
								}

							}
, 							{
								"box" : 								{
									"maxclass" : "number",
									"patching_rect" : [ 146.0, 205.0, 50.0, 18.0 ],
									"id" : "obj-54",
									"fontname" : "Arial",
									"numinlets" : 1,
									"numoutlets" : 2,
									"fontsize" : 10.435669,
									"outlettype" : [ "int", "bang" ]
								}

							}
, 							{
								"box" : 								{
									"maxclass" : "newobj",
									"text" : "pak 0 0 0 0",
									"patching_rect" : [ 43.0, 227.0, 173.0, 18.0 ],
									"id" : "obj-55",
									"fontname" : "Arial",
									"numinlets" : 4,
									"numoutlets" : 1,
									"fontsize" : 10.435669,
									"outlettype" : [ "" ]
								}

							}
, 							{
								"box" : 								{
									"maxclass" : "number",
									"patching_rect" : [ 94.0, 205.0, 51.0, 18.0 ],
									"id" : "obj-56",
									"fontname" : "Arial",
									"numinlets" : 1,
									"numoutlets" : 2,
									"fontsize" : 10.435669,
									"outlettype" : [ "int", "bang" ]
								}

							}
, 							{
								"box" : 								{
									"maxclass" : "number",
									"patching_rect" : [ 43.0, 205.0, 50.0, 18.0 ],
									"id" : "obj-57",
									"fontname" : "Arial",
									"numinlets" : 1,
									"numoutlets" : 2,
									"fontsize" : 10.435669,
									"outlettype" : [ "int", "bang" ]
								}

							}
, 							{
								"box" : 								{
									"maxclass" : "newobj",
									"text" : "t l",
									"patching_rect" : [ 283.0, 378.0, 19.0, 18.0 ],
									"id" : "obj-35",
									"fontname" : "Arial",
									"numinlets" : 1,
									"numoutlets" : 1,
									"fontsize" : 10.435669,
									"outlettype" : [ "" ]
								}

							}
, 							{
								"box" : 								{
									"maxclass" : "message",
									"text" : "window flags float, window exec",
									"patching_rect" : [ 480.0, 343.0, 158.0, 16.0 ],
									"id" : "obj-32",
									"fontname" : "Arial",
									"numinlets" : 2,
									"numoutlets" : 1,
									"fontsize" : 10.435669,
									"outlettype" : [ "" ]
								}

							}
, 							{
								"box" : 								{
									"maxclass" : "message",
									"text" : "window exec",
									"patching_rect" : [ 283.0, 323.0, 70.0, 16.0 ],
									"id" : "obj-31",
									"fontname" : "Arial",
									"numinlets" : 2,
									"numoutlets" : 1,
									"fontsize" : 10.435669,
									"outlettype" : [ "" ]
								}

							}
, 							{
								"box" : 								{
									"maxclass" : "newobj",
									"text" : "t b l b",
									"patching_rect" : [ 283.0, 279.0, 46.0, 18.0 ],
									"id" : "obj-30",
									"fontname" : "Arial",
									"numinlets" : 1,
									"numoutlets" : 3,
									"fontsize" : 10.435669,
									"outlettype" : [ "bang", "", "bang" ]
								}

							}
, 							{
								"box" : 								{
									"maxclass" : "newobj",
									"text" : "prepend window size",
									"patching_rect" : [ 283.0, 257.0, 108.0, 18.0 ],
									"id" : "obj-28",
									"fontname" : "Arial",
									"numinlets" : 1,
									"numoutlets" : 1,
									"fontsize" : 10.435669,
									"outlettype" : [ "" ]
								}

							}
, 							{
								"box" : 								{
									"maxclass" : "comment",
									"text" : "Ymax",
									"patching_rect" : [ 448.0, 186.0, 37.0, 18.0 ],
									"id" : "obj-27",
									"fontname" : "Arial",
									"numinlets" : 1,
									"numoutlets" : 0,
									"fontsize" : 10.435669
								}

							}
, 							{
								"box" : 								{
									"maxclass" : "comment",
									"text" : "Xmax",
									"patching_rect" : [ 397.0, 186.0, 37.0, 18.0 ],
									"id" : "obj-26",
									"fontname" : "Arial",
									"numinlets" : 1,
									"numoutlets" : 0,
									"fontsize" : 10.435669
								}

							}
, 							{
								"box" : 								{
									"maxclass" : "comment",
									"text" : "Ymin",
									"patching_rect" : [ 345.0, 186.0, 34.0, 18.0 ],
									"id" : "obj-23",
									"fontname" : "Arial",
									"numinlets" : 1,
									"numoutlets" : 0,
									"fontsize" : 10.435669
								}

							}
, 							{
								"box" : 								{
									"maxclass" : "comment",
									"text" : "Xmin",
									"patching_rect" : [ 294.0, 186.0, 34.0, 18.0 ],
									"id" : "obj-22",
									"fontname" : "Arial",
									"numinlets" : 1,
									"numoutlets" : 0,
									"fontsize" : 10.435669
								}

							}
, 							{
								"box" : 								{
									"maxclass" : "comment",
									"text" : "pref.",
									"patching_rect" : [ 411.0, 147.0, 31.0, 18.0 ],
									"id" : "obj-20",
									"fontname" : "Arial",
									"numinlets" : 1,
									"numoutlets" : 0,
									"fontsize" : 10.435669
								}

							}
, 							{
								"box" : 								{
									"maxclass" : "newobj",
									"text" : "unpack 0 0 0 0",
									"patching_rect" : [ 283.0, 167.0, 173.0, 18.0 ],
									"id" : "obj-18",
									"fontname" : "Arial",
									"numinlets" : 1,
									"numoutlets" : 4,
									"fontsize" : 10.435669,
									"outlettype" : [ "int", "int", "int", "int" ]
								}

							}
, 							{
								"box" : 								{
									"maxclass" : "message",
									"text" : "120 60 1142 721",
									"patching_rect" : [ 283.0, 146.0, 89.0, 16.0 ],
									"id" : "obj-16",
									"fontname" : "Arial",
									"numinlets" : 2,
									"numoutlets" : 1,
									"fontsize" : 10.435669,
									"outlettype" : [ "" ]
								}

							}
, 							{
								"box" : 								{
									"maxclass" : "number",
									"patching_rect" : [ 437.0, 205.0, 50.0, 18.0 ],
									"id" : "obj-12",
									"fontname" : "Arial",
									"numinlets" : 1,
									"numoutlets" : 2,
									"fontsize" : 10.435669,
									"outlettype" : [ "int", "bang" ]
								}

							}
, 							{
								"box" : 								{
									"maxclass" : "number",
									"patching_rect" : [ 386.0, 205.0, 50.0, 18.0 ],
									"id" : "obj-15",
									"fontname" : "Arial",
									"numinlets" : 1,
									"numoutlets" : 2,
									"fontsize" : 10.435669,
									"outlettype" : [ "int", "bang" ]
								}

							}
, 							{
								"box" : 								{
									"maxclass" : "newobj",
									"text" : "pak 0 0 0 0",
									"patching_rect" : [ 283.0, 227.0, 173.0, 18.0 ],
									"id" : "obj-7",
									"fontname" : "Arial",
									"numinlets" : 4,
									"numoutlets" : 1,
									"fontsize" : 10.435669,
									"outlettype" : [ "" ]
								}

							}
, 							{
								"box" : 								{
									"maxclass" : "number",
									"patching_rect" : [ 334.0, 205.0, 51.0, 18.0 ],
									"id" : "obj-4",
									"fontname" : "Arial",
									"numinlets" : 1,
									"numoutlets" : 2,
									"fontsize" : 10.435669,
									"outlettype" : [ "int", "bang" ]
								}

							}
, 							{
								"box" : 								{
									"maxclass" : "number",
									"patching_rect" : [ 283.0, 205.0, 50.0, 18.0 ],
									"id" : "obj-3",
									"fontname" : "Arial",
									"numinlets" : 1,
									"numoutlets" : 2,
									"fontsize" : 10.435669,
									"outlettype" : [ "int", "bang" ]
								}

							}
, 							{
								"box" : 								{
									"maxclass" : "comment",
									"text" : "view",
									"patching_rect" : [ 284.0, 69.0, 31.0, 18.0 ],
									"id" : "obj-11",
									"fontname" : "Arial",
									"numinlets" : 1,
									"numoutlets" : 0,
									"fontsize" : 10.435669
								}

							}
, 							{
								"box" : 								{
									"maxclass" : "message",
									"text" : "presentation $1",
									"patching_rect" : [ 250.0, 90.0, 82.0, 16.0 ],
									"id" : "obj-10",
									"fontname" : "Arial",
									"numinlets" : 2,
									"numoutlets" : 1,
									"fontsize" : 10.435669,
									"outlettype" : [ "" ]
								}

							}
, 							{
								"box" : 								{
									"maxclass" : "newobj",
									"text" : "== 0",
									"patching_rect" : [ 250.0, 69.0, 32.5, 18.0 ],
									"id" : "obj-9",
									"fontname" : "Arial",
									"numinlets" : 2,
									"numoutlets" : 1,
									"fontsize" : 10.435669,
									"outlettype" : [ "int" ]
								}

							}
, 							{
								"box" : 								{
									"maxclass" : "inlet",
									"prototypename" : "Arial9",
									"patching_rect" : [ 153.0, 17.0, 18.0, 18.0 ],
									"id" : "obj-44",
									"numinlets" : 0,
									"numoutlets" : 1,
									"outlettype" : [ "int" ],
									"comment" : ""
								}

							}
, 							{
								"box" : 								{
									"maxclass" : "toggle",
									"prototypename" : "Arial9",
									"patching_rect" : [ 153.0, 52.0, 18.0, 18.0 ],
									"id" : "obj-41",
									"numinlets" : 1,
									"numoutlets" : 1,
									"outlettype" : [ "int" ]
								}

							}
, 							{
								"box" : 								{
									"maxclass" : "newobj",
									"text" : "sel 1 0",
									"patching_rect" : [ 153.0, 74.0, 46.0, 18.0 ],
									"id" : "obj-25",
									"fontname" : "Arial",
									"numinlets" : 1,
									"numoutlets" : 3,
									"fontsize" : 10.435669,
									"outlettype" : [ "bang", "bang", "" ]
								}

							}
, 							{
								"box" : 								{
									"maxclass" : "outlet",
									"prototypename" : "Arial9",
									"patching_rect" : [ 250.0, 443.0, 18.0, 18.0 ],
									"id" : "obj-21",
									"numinlets" : 1,
									"numoutlets" : 0,
									"comment" : ""
								}

							}
 ],
						"lines" : [ 							{
								"patchline" : 								{
									"source" : [ "obj-41", 0 ],
									"destination" : [ "obj-25", 0 ],
									"hidden" : 0,
									"midpoints" : [  ]
								}

							}
, 							{
								"patchline" : 								{
									"source" : [ "obj-44", 0 ],
									"destination" : [ "obj-41", 0 ],
									"hidden" : 0,
									"midpoints" : [  ]
								}

							}
, 							{
								"patchline" : 								{
									"source" : [ "obj-41", 0 ],
									"destination" : [ "obj-9", 0 ],
									"hidden" : 0,
									"midpoints" : [  ]
								}

							}
, 							{
								"patchline" : 								{
									"source" : [ "obj-9", 0 ],
									"destination" : [ "obj-10", 0 ],
									"hidden" : 0,
									"midpoints" : [  ]
								}

							}
, 							{
								"patchline" : 								{
									"source" : [ "obj-10", 0 ],
									"destination" : [ "obj-21", 0 ],
									"hidden" : 0,
									"midpoints" : [  ]
								}

							}
, 							{
								"patchline" : 								{
									"source" : [ "obj-3", 0 ],
									"destination" : [ "obj-7", 0 ],
									"hidden" : 0,
									"midpoints" : [  ]
								}

							}
, 							{
								"patchline" : 								{
									"source" : [ "obj-4", 0 ],
									"destination" : [ "obj-7", 1 ],
									"hidden" : 0,
									"midpoints" : [  ]
								}

							}
, 							{
								"patchline" : 								{
									"source" : [ "obj-15", 0 ],
									"destination" : [ "obj-7", 2 ],
									"hidden" : 0,
									"midpoints" : [  ]
								}

							}
, 							{
								"patchline" : 								{
									"source" : [ "obj-12", 0 ],
									"destination" : [ "obj-7", 3 ],
									"hidden" : 0,
									"midpoints" : [  ]
								}

							}
, 							{
								"patchline" : 								{
									"source" : [ "obj-18", 0 ],
									"destination" : [ "obj-3", 0 ],
									"hidden" : 0,
									"midpoints" : [  ]
								}

							}
, 							{
								"patchline" : 								{
									"source" : [ "obj-18", 1 ],
									"destination" : [ "obj-4", 0 ],
									"hidden" : 0,
									"midpoints" : [  ]
								}

							}
, 							{
								"patchline" : 								{
									"source" : [ "obj-18", 2 ],
									"destination" : [ "obj-15", 0 ],
									"hidden" : 0,
									"midpoints" : [  ]
								}

							}
, 							{
								"patchline" : 								{
									"source" : [ "obj-18", 3 ],
									"destination" : [ "obj-12", 0 ],
									"hidden" : 0,
									"midpoints" : [  ]
								}

							}
, 							{
								"patchline" : 								{
									"source" : [ "obj-16", 0 ],
									"destination" : [ "obj-18", 0 ],
									"hidden" : 0,
									"midpoints" : [  ]
								}

							}
, 							{
								"patchline" : 								{
									"source" : [ "obj-7", 0 ],
									"destination" : [ "obj-16", 1 ],
									"hidden" : 0,
									"midpoints" : [ 292.5, 251.0, 274.0, 251.0, 274.0, 139.0, 362.5, 139.0 ]
								}

							}
, 							{
								"patchline" : 								{
									"source" : [ "obj-31", 0 ],
									"destination" : [ "obj-35", 0 ],
									"hidden" : 0,
									"midpoints" : [  ]
								}

							}
, 							{
								"patchline" : 								{
									"source" : [ "obj-29", 0 ],
									"destination" : [ "obj-35", 0 ],
									"hidden" : 0,
									"midpoints" : [  ]
								}

							}
, 							{
								"patchline" : 								{
									"source" : [ "obj-35", 0 ],
									"destination" : [ "obj-21", 0 ],
									"hidden" : 0,
									"midpoints" : [  ]
								}

							}
, 							{
								"patchline" : 								{
									"source" : [ "obj-42", 0 ],
									"destination" : [ "obj-37", 0 ],
									"hidden" : 0,
									"midpoints" : [  ]
								}

							}
, 							{
								"patchline" : 								{
									"source" : [ "obj-39", 0 ],
									"destination" : [ "obj-37", 0 ],
									"hidden" : 0,
									"midpoints" : [  ]
								}

							}
, 							{
								"patchline" : 								{
									"source" : [ "obj-55", 0 ],
									"destination" : [ "obj-52", 1 ],
									"hidden" : 0,
									"midpoints" : [ 52.5, 251.0, 34.0, 251.0, 34.0, 139.0, 122.5, 139.0 ]
								}

							}
, 							{
								"patchline" : 								{
									"source" : [ "obj-52", 0 ],
									"destination" : [ "obj-51", 0 ],
									"hidden" : 0,
									"midpoints" : [  ]
								}

							}
, 							{
								"patchline" : 								{
									"source" : [ "obj-51", 3 ],
									"destination" : [ "obj-53", 0 ],
									"hidden" : 0,
									"midpoints" : [  ]
								}

							}
, 							{
								"patchline" : 								{
									"source" : [ "obj-51", 2 ],
									"destination" : [ "obj-54", 0 ],
									"hidden" : 0,
									"midpoints" : [  ]
								}

							}
, 							{
								"patchline" : 								{
									"source" : [ "obj-51", 1 ],
									"destination" : [ "obj-56", 0 ],
									"hidden" : 0,
									"midpoints" : [  ]
								}

							}
, 							{
								"patchline" : 								{
									"source" : [ "obj-51", 0 ],
									"destination" : [ "obj-57", 0 ],
									"hidden" : 0,
									"midpoints" : [  ]
								}

							}
, 							{
								"patchline" : 								{
									"source" : [ "obj-53", 0 ],
									"destination" : [ "obj-55", 3 ],
									"hidden" : 0,
									"midpoints" : [  ]
								}

							}
, 							{
								"patchline" : 								{
									"source" : [ "obj-54", 0 ],
									"destination" : [ "obj-55", 2 ],
									"hidden" : 0,
									"midpoints" : [  ]
								}

							}
, 							{
								"patchline" : 								{
									"source" : [ "obj-56", 0 ],
									"destination" : [ "obj-55", 1 ],
									"hidden" : 0,
									"midpoints" : [  ]
								}

							}
, 							{
								"patchline" : 								{
									"source" : [ "obj-57", 0 ],
									"destination" : [ "obj-55", 0 ],
									"hidden" : 0,
									"midpoints" : [  ]
								}

							}
, 							{
								"patchline" : 								{
									"source" : [ "obj-37", 0 ],
									"destination" : [ "obj-21", 0 ],
									"hidden" : 0,
									"midpoints" : [  ]
								}

							}
, 							{
								"patchline" : 								{
									"source" : [ "obj-55", 0 ],
									"destination" : [ "obj-43", 0 ],
									"hidden" : 0,
									"midpoints" : [  ]
								}

							}
, 							{
								"patchline" : 								{
									"source" : [ "obj-7", 0 ],
									"destination" : [ "obj-28", 0 ],
									"hidden" : 0,
									"midpoints" : [  ]
								}

							}
, 							{
								"patchline" : 								{
									"source" : [ "obj-62", 0 ],
									"destination" : [ "obj-31", 0 ],
									"hidden" : 0,
									"midpoints" : [  ]
								}

							}
, 							{
								"patchline" : 								{
									"source" : [ "obj-63", 0 ],
									"destination" : [ "obj-39", 0 ],
									"hidden" : 0,
									"midpoints" : [  ]
								}

							}
, 							{
								"patchline" : 								{
									"source" : [ "obj-25", 0 ],
									"destination" : [ "obj-52", 0 ],
									"hidden" : 0,
									"midpoints" : [  ]
								}

							}
, 							{
								"patchline" : 								{
									"source" : [ "obj-25", 1 ],
									"destination" : [ "obj-16", 0 ],
									"hidden" : 0,
									"midpoints" : [  ]
								}

							}
, 							{
								"patchline" : 								{
									"source" : [ "obj-1", 0 ],
									"destination" : [ "obj-21", 0 ],
									"hidden" : 0,
									"midpoints" : [  ]
								}

							}
, 							{
								"patchline" : 								{
									"source" : [ "obj-30", 0 ],
									"destination" : [ "obj-62", 0 ],
									"hidden" : 0,
									"midpoints" : [  ]
								}

							}
, 							{
								"patchline" : 								{
									"source" : [ "obj-30", 1 ],
									"destination" : [ "obj-35", 0 ],
									"hidden" : 0,
									"midpoints" : [  ]
								}

							}
, 							{
								"patchline" : 								{
									"source" : [ "obj-30", 2 ],
									"destination" : [ "obj-29", 0 ],
									"hidden" : 0,
									"midpoints" : [  ]
								}

							}
, 							{
								"patchline" : 								{
									"source" : [ "obj-28", 0 ],
									"destination" : [ "obj-30", 0 ],
									"hidden" : 0,
									"midpoints" : [  ]
								}

							}
, 							{
								"patchline" : 								{
									"source" : [ "obj-5", 0 ],
									"destination" : [ "obj-6", 0 ],
									"hidden" : 0,
									"midpoints" : [  ]
								}

							}
, 							{
								"patchline" : 								{
									"source" : [ "obj-6", 0 ],
									"destination" : [ "obj-8", 0 ],
									"hidden" : 0,
									"midpoints" : [  ]
								}

							}
, 							{
								"patchline" : 								{
									"source" : [ "obj-8", 0 ],
									"destination" : [ "obj-38", 0 ],
									"hidden" : 0,
									"midpoints" : [  ]
								}

							}
, 							{
								"patchline" : 								{
									"source" : [ "obj-40", 0 ],
									"destination" : [ "obj-63", 0 ],
									"hidden" : 0,
									"midpoints" : [  ]
								}

							}
, 							{
								"patchline" : 								{
									"source" : [ "obj-43", 0 ],
									"destination" : [ "obj-40", 0 ],
									"hidden" : 0,
									"midpoints" : [  ]
								}

							}
, 							{
								"patchline" : 								{
									"source" : [ "obj-40", 2 ],
									"destination" : [ "obj-42", 0 ],
									"hidden" : 0,
									"midpoints" : [  ]
								}

							}
, 							{
								"patchline" : 								{
									"source" : [ "obj-40", 1 ],
									"destination" : [ "obj-37", 0 ],
									"hidden" : 0,
									"midpoints" : [  ]
								}

							}
, 							{
								"patchline" : 								{
									"source" : [ "obj-8", 1 ],
									"destination" : [ "obj-32", 0 ],
									"hidden" : 0,
									"midpoints" : [  ]
								}

							}
, 							{
								"patchline" : 								{
									"source" : [ "obj-38", 0 ],
									"destination" : [ "obj-13", 0 ],
									"hidden" : 0,
									"midpoints" : [  ]
								}

							}
, 							{
								"patchline" : 								{
									"source" : [ "obj-32", 0 ],
									"destination" : [ "obj-13", 0 ],
									"hidden" : 0,
									"midpoints" : [  ]
								}

							}
, 							{
								"patchline" : 								{
									"source" : [ "obj-13", 0 ],
									"destination" : [ "obj-21", 0 ],
									"hidden" : 0,
									"midpoints" : [  ]
								}

							}
 ]
					}
,
					"saved_object_attributes" : 					{
						"default_fontname" : "Arial",
						"default_fontsize" : 9.0,
						"fontname" : "Arial",
						"globalpatchername" : "",
						"fontface" : 0,
						"fontsize" : 9.0,
						"default_fontface" : 0
					}

				}

			}
, 			{
				"box" : 				{
					"maxclass" : "newobj",
					"text" : "onecopy",
					"patching_rect" : [ 1049.0, 616.0, 50.0, 18.0 ],
					"id" : "obj-85",
					"fontname" : "Arial",
					"numinlets" : 1,
					"numoutlets" : 0,
					"fontsize" : 10.435669
				}

			}
, 			{
				"box" : 				{
					"maxclass" : "comment",
					"text" : "Visual Effects",
					"patching_rect" : [ 678.0, 5.0, 108.0, 25.0 ],
					"textcolor" : [ 0.858824, 0.858824, 0.858824, 1.0 ],
					"presentation" : 1,
					"id" : "obj-16",
					"fontname" : "Arial",
					"numinlets" : 1,
					"numoutlets" : 0,
					"frgb" : [ 0.858824, 0.858824, 0.858824, 1.0 ],
					"presentation_rect" : [ 678.0, 5.0, 108.0, 25.0 ],
					"fontsize" : 16.0
				}

			}
, 			{
				"box" : 				{
					"maxclass" : "bpatcher",
					"varname" : "Player2all",
					"patching_rect" : [ 676.0, 487.0, 342.0, 166.0 ],
					"presentation" : 1,
					"name" : "Player2all.maxpat",
					"id" : "obj-79",
					"numinlets" : 0,
					"numoutlets" : 1,
					"presentation_rect" : [ 676.0, 487.0, 342.0, 166.0 ],
					"outlettype" : [ "jit_gl_texture" ],
					"args" : [  ]
				}

			}
, 			{
				"box" : 				{
					"maxclass" : "bpatcher",
					"varname" : "audioUnit",
					"patching_rect" : [ 3.0, 302.0, 347.0, 179.0 ],
					"presentation" : 1,
					"name" : "audioUnit.maxpat",
					"id" : "obj-152",
					"numinlets" : 0,
					"numoutlets" : 0,
					"presentation_rect" : [ 3.0, 302.0, 347.0, 179.0 ],
					"args" : [  ]
				}

			}
, 			{
				"box" : 				{
					"maxclass" : "bpatcher",
					"varname" : "database",
					"patching_rect" : [ 3.0, 2.0, 345.0, 300.0 ],
					"presentation" : 1,
					"name" : "database.maxpat",
					"id" : "obj-2",
					"numinlets" : 1,
					"numoutlets" : 0,
					"presentation_rect" : [ 3.0, 2.0, 345.0, 300.0 ],
					"args" : [  ]
				}

			}
, 			{
				"box" : 				{
					"maxclass" : "bpatcher",
					"varname" : "screenCtrls",
					"patching_rect" : [ 354.0, 2.0, 308.0, 474.0 ],
					"presentation" : 1,
					"name" : "screenCtrls.maxpat",
					"id" : "obj-27",
					"numinlets" : 1,
					"numoutlets" : 0,
					"presentation_rect" : [ 354.0, 2.0, 308.0, 474.0 ],
					"args" : [  ]
				}

			}
, 			{
				"box" : 				{
					"maxclass" : "panel",
					"patching_rect" : [ 672.0, 483.0, 345.0, 174.0 ],
					"rounded" : 0,
					"presentation" : 1,
					"bgcolor" : [ 0.129412, 0.129412, 0.129412, 1.0 ],
					"grad1" : [ 0.0, 0.2, 0.2, 1.0 ],
					"id" : "obj-13",
					"angle" : 90.0,
					"numinlets" : 1,
					"grad2" : [ 0.129412, 0.129412, 0.129412, 1.0 ],
					"numoutlets" : 0,
					"presentation_rect" : [ 672.0, 483.0, 345.0, 174.0 ]
				}

			}
, 			{
				"box" : 				{
					"maxclass" : "panel",
					"patching_rect" : [ 357.0, 3.0, 310.0, 476.0 ],
					"rounded" : 0,
					"presentation" : 1,
					"bgcolor" : [ 0.129412, 0.129412, 0.129412, 1.0 ],
					"grad1" : [ 0.0, 0.2, 0.2, 1.0 ],
					"id" : "obj-11",
					"angle" : 90.0,
					"numinlets" : 1,
					"grad2" : [ 0.129412, 0.129412, 0.129412, 1.0 ],
					"numoutlets" : 0,
					"presentation_rect" : [ 357.0, 3.0, 310.0, 476.0 ]
				}

			}
, 			{
				"box" : 				{
					"maxclass" : "panel",
					"patching_rect" : [ 5.0, 306.0, 347.0, 173.0 ],
					"rounded" : 0,
					"presentation" : 1,
					"bgcolor" : [ 0.129412, 0.129412, 0.129412, 1.0 ],
					"grad1" : [ 0.0, 0.2, 0.2, 1.0 ],
					"id" : "obj-14",
					"angle" : 90.0,
					"numinlets" : 1,
					"grad2" : [ 0.129412, 0.129412, 0.129412, 1.0 ],
					"numoutlets" : 0,
					"presentation_rect" : [ 5.0, 306.0, 347.0, 173.0 ]
				}

			}
, 			{
				"box" : 				{
					"maxclass" : "panel",
					"patching_rect" : [ 5.0, 3.0, 347.0, 299.0 ],
					"rounded" : 0,
					"presentation" : 1,
					"bgcolor" : [ 0.129412, 0.129412, 0.129412, 1.0 ],
					"grad1" : [ 0.0, 0.2, 0.2, 1.0 ],
					"id" : "obj-15",
					"angle" : 90.0,
					"numinlets" : 1,
					"grad2" : [ 0.129412, 0.129412, 0.129412, 1.0 ],
					"numoutlets" : 0,
					"presentation_rect" : [ 5.0, 3.0, 347.0, 299.0 ]
				}

			}
, 			{
				"box" : 				{
					"maxclass" : "panel",
					"patching_rect" : [ 357.0, 483.0, 310.0, 174.0 ],
					"rounded" : 0,
					"presentation" : 1,
					"bgcolor" : [ 0.129412, 0.129412, 0.129412, 1.0 ],
					"grad1" : [ 0.0, 0.2, 0.2, 1.0 ],
					"id" : "obj-4",
					"angle" : 90.0,
					"numinlets" : 1,
					"grad2" : [ 0.129412, 0.129412, 0.129412, 1.0 ],
					"numoutlets" : 0,
					"presentation_rect" : [ 357.0, 483.0, 310.0, 174.0 ]
				}

			}
, 			{
				"box" : 				{
					"maxclass" : "bpatcher",
					"varname" : "Player1all",
					"patching_rect" : [ 11.0, 486.0, 335.0, 170.0 ],
					"presentation" : 1,
					"name" : "Player1all.maxpat",
					"id" : "obj-145",
					"numinlets" : 0,
					"numoutlets" : 1,
					"presentation_rect" : [ 9.0, 487.0, 335.0, 170.0 ],
					"outlettype" : [ "jit_gl_texture" ],
					"args" : [  ]
				}

			}
, 			{
				"box" : 				{
					"maxclass" : "panel",
					"patching_rect" : [ 5.0, 483.0, 347.0, 174.0 ],
					"rounded" : 0,
					"presentation" : 1,
					"bgcolor" : [ 0.129412, 0.129412, 0.129412, 1.0 ],
					"grad1" : [ 0.0, 0.2, 0.2, 1.0 ],
					"id" : "obj-12",
					"angle" : 90.0,
					"numinlets" : 1,
					"grad2" : [ 0.129412, 0.129412, 0.129412, 1.0 ],
					"numoutlets" : 0,
					"presentation_rect" : [ 5.0, 483.0, 347.0, 174.0 ]
				}

			}
, 			{
				"box" : 				{
					"maxclass" : "bpatcher",
					"varname" : "fxMix",
					"patching_rect" : [ 668.0, 17.0, 347.0, 458.0 ],
					"presentation" : 1,
					"name" : "fxMix.maxpat",
					"id" : "obj-6",
					"numinlets" : 1,
					"numoutlets" : 1,
					"presentation_rect" : [ 668.0, 17.0, 347.0, 458.0 ],
					"outlettype" : [ "jit_gl_texture" ],
					"args" : [  ]
				}

			}
, 			{
				"box" : 				{
					"maxclass" : "fpic",
					"patching_rect" : [ 679.0, 268.0, 332.0, 104.0 ],
					"pic" : "grammes.png",
					"presentation" : 1,
					"id" : "obj-43",
					"numinlets" : 1,
					"numoutlets" : 0,
					"presentation_rect" : [ 679.0, 268.0, 332.0, 104.0 ],
					"autofit" : 1
				}

			}
, 			{
				"box" : 				{
					"maxclass" : "fpic",
					"patching_rect" : [ 679.0, 153.0, 332.0, 104.0 ],
					"pic" : "grammes.png",
					"presentation" : 1,
					"id" : "obj-3",
					"numinlets" : 1,
					"numoutlets" : 0,
					"presentation_rect" : [ 679.0, 153.0, 332.0, 104.0 ],
					"autofit" : 1
				}

			}
, 			{
				"box" : 				{
					"maxclass" : "panel",
					"patching_rect" : [ 672.0, 3.0, 345.0, 476.0 ],
					"rounded" : 0,
					"presentation" : 1,
					"bgcolor" : [ 0.129412, 0.129412, 0.129412, 1.0 ],
					"grad1" : [ 0.0, 0.2, 0.2, 1.0 ],
					"id" : "obj-42",
					"angle" : 90.0,
					"numinlets" : 1,
					"grad2" : [ 0.129412, 0.129412, 0.129412, 1.0 ],
					"numoutlets" : 0,
					"presentation_rect" : [ 672.0, 3.0, 345.0, 476.0 ]
				}

			}
 ],
		"lines" : [ 			{
				"patchline" : 				{
					"source" : [ "obj-6", 0 ],
					"destination" : [ "obj-27", 0 ],
					"hidden" : 1,
					"midpoints" : [  ]
				}

			}
, 			{
				"patchline" : 				{
					"source" : [ "obj-49", 0 ],
					"destination" : [ "obj-6", 0 ],
					"hidden" : 1,
					"midpoints" : [ 368.5, 659.0, 677.5, 659.0 ]
				}

			}
, 			{
				"patchline" : 				{
					"source" : [ "obj-145", 0 ],
					"destination" : [ "obj-49", 0 ],
					"hidden" : 1,
					"midpoints" : [ 20.5, 659.0, 368.5, 659.0 ]
				}

			}
, 			{
				"patchline" : 				{
					"source" : [ "obj-7", 0 ],
					"destination" : [ "obj-142", 0 ],
					"hidden" : 0,
					"midpoints" : [  ]
				}

			}
, 			{
				"patchline" : 				{
					"source" : [ "obj-84", 0 ],
					"destination" : [ "obj-7", 0 ],
					"hidden" : 1,
					"midpoints" : [  ]
				}

			}
, 			{
				"patchline" : 				{
					"source" : [ "obj-66", 0 ],
					"destination" : [ "obj-7", 1 ],
					"hidden" : 1,
					"midpoints" : [  ]
				}

			}
, 			{
				"patchline" : 				{
					"source" : [ "obj-79", 0 ],
					"destination" : [ "obj-49", 1 ],
					"hidden" : 1,
					"midpoints" : [ 685.5, 660.0, 659.5, 660.0 ]
				}

			}
 ],
		"parameters" : 		{

		}

	}

}
