{
	"patcher" : 	{
		"fileversion" : 1,
		"rect" : [ 8.0, 134.0, 1382.0, 659.0 ],
		"bgcolor" : [ 0.0, 0.0, 0.0, 1.0 ],
		"bglocked" : 1,
		"defrect" : [ 8.0, 134.0, 1382.0, 659.0 ],
		"openrect" : [ 0.0, 0.0, 0.0, 0.0 ],
		"openinpresentation" : 0,
		"default_fontsize" : 12.0,
		"default_fontface" : 0,
		"default_fontname" : "Arial",
		"gridonopen" : 0,
		"gridsize" : [ 15.0, 15.0 ],
		"gridsnaponopen" : 0,
		"toolbarvisible" : 1,
		"boxanimatetime" : 200,
		"imprint" : 0,
		"enablehscroll" : 1,
		"enablevscroll" : 1,
		"devicewidth" : 0.0,
		"boxes" : [ 			{
				"box" : 				{
					"maxclass" : "message",
					"text" : "read",
					"id" : "obj-1",
					"fontsize" : 12.0,
					"numoutlets" : 1,
					"outlettype" : [ "" ],
					"fontname" : "Arial",
					"patching_rect" : [ 68.0, 152.0, 35.0, 18.0 ],
					"numinlets" : 2
				}

			}
, 			{
				"box" : 				{
					"maxclass" : "jit.pwindow",
					"id" : "obj-62",
					"numoutlets" : 2,
					"outlettype" : [ "", "" ],
					"colormode" : "uyvy",
					"patching_rect" : [ 53.0, 322.0, 80.0, 60.0 ],
					"numinlets" : 1
				}

			}
, 			{
				"box" : 				{
					"maxclass" : "newobj",
					"text" : "jit.matrix 4 char 160 120",
					"id" : "obj-61",
					"fontsize" : 12.0,
					"numoutlets" : 2,
					"outlettype" : [ "jit_matrix", "" ],
					"fontname" : "Arial",
					"patching_rect" : [ 53.0, 297.0, 139.0, 20.0 ],
					"numinlets" : 1
				}

			}
, 			{
				"box" : 				{
					"maxclass" : "toggle",
					"id" : "obj-3",
					"numoutlets" : 1,
					"outlettype" : [ "int" ],
					"patching_rect" : [ 34.0, 51.0, 20.0, 20.0 ],
					"numinlets" : 1
				}

			}
, 			{
				"box" : 				{
					"maxclass" : "newobj",
					"text" : "jit.qt.movie @colormode uyvy",
					"id" : "obj-93",
					"fontsize" : 12.0,
					"numoutlets" : 2,
					"outlettype" : [ "jit_matrix", "" ],
					"fontname" : "Arial",
					"patching_rect" : [ 53.149536, 179.620178, 168.0, 20.0 ],
					"numinlets" : 1
				}

			}
, 			{
				"box" : 				{
					"maxclass" : "newobj",
					"text" : "jit.window Main1 @depthbuffer 1 @fsaa 1 @colormode uyvy",
					"id" : "obj-87",
					"fontsize" : 12.0,
					"numoutlets" : 2,
					"outlettype" : [ "bang", "" ],
					"fontname" : "Arial",
					"patching_rect" : [ 262.0, 121.0, 333.0, 20.0 ],
					"numinlets" : 1
				}

			}
, 			{
				"box" : 				{
					"maxclass" : "newobj",
					"text" : "qmetro 0.5",
					"id" : "obj-95",
					"fontsize" : 12.0,
					"numoutlets" : 1,
					"outlettype" : [ "bang" ],
					"fontname" : "Arial",
					"patching_rect" : [ 34.0, 69.0, 69.0, 20.0 ],
					"numinlets" : 2
				}

			}
, 			{
				"box" : 				{
					"maxclass" : "newobj",
					"text" : "t b b erase b b",
					"id" : "obj-96",
					"fontsize" : 12.0,
					"numoutlets" : 5,
					"outlettype" : [ "bang", "bang", "erase", "bang", "bang" ],
					"fontname" : "Arial",
					"patching_rect" : [ 34.0, 94.0, 95.0, 20.0 ],
					"numinlets" : 1
				}

			}
, 			{
				"box" : 				{
					"maxclass" : "newobj",
					"text" : "jit.gl.render Main1 @erase_color 0 0 0 1",
					"id" : "obj-97",
					"fontsize" : 12.0,
					"numoutlets" : 2,
					"outlettype" : [ "bang", "" ],
					"fontname" : "Arial",
					"patching_rect" : [ 34.0, 121.0, 225.0, 20.0 ],
					"numinlets" : 1
				}

			}
, 			{
				"box" : 				{
					"maxclass" : "newobj",
					"text" : "sel 27 32",
					"id" : "obj-99",
					"fontsize" : 12.0,
					"numoutlets" : 3,
					"outlettype" : [ "bang", "bang", "" ],
					"fontname" : "Arial",
					"patching_rect" : [ 13.0, 28.0, 60.0, 20.0 ],
					"numinlets" : 1
				}

			}
, 			{
				"box" : 				{
					"maxclass" : "newobj",
					"text" : "key",
					"id" : "obj-101",
					"fontsize" : 12.0,
					"numoutlets" : 4,
					"outlettype" : [ "int", "int", "int", "int" ],
					"fontname" : "Arial",
					"patching_rect" : [ 13.0, 5.0, 70.0, 20.0 ],
					"numinlets" : 0
				}

			}
, 			{
				"box" : 				{
					"maxclass" : "flonum",
					"id" : "obj-129",
					"htextcolor" : [ 0.870588, 0.870588, 0.870588, 1.0 ],
					"fontsize" : 12.0,
					"minimum" : 0.0,
					"numoutlets" : 2,
					"maximum" : 1.0,
					"outlettype" : [ "float", "bang" ],
					"fontname" : "Arial",
					"bgcolor" : [ 0.866667, 0.866667, 0.866667, 1.0 ],
					"patching_rect" : [ 66.0, 216.0, 40.0, 20.0 ],
					"triscale" : 0.9,
					"numinlets" : 1
				}

			}
, 			{
				"box" : 				{
					"maxclass" : "message",
					"text" : "param amount $1",
					"id" : "obj-130",
					"fontsize" : 12.0,
					"numoutlets" : 1,
					"outlettype" : [ "" ],
					"fontname" : "Arial",
					"patching_rect" : [ 66.0, 236.0, 106.0, 18.0 ],
					"numinlets" : 2
				}

			}
, 			{
				"box" : 				{
					"maxclass" : "newobj",
					"text" : "jit.gl.slab Main1 @file v001.co2.additive.jxs @colormode uyvy",
					"id" : "obj-138",
					"fontsize" : 12.0,
					"numoutlets" : 2,
					"outlettype" : [ "jit_gl_texture", "" ],
					"fontname" : "Arial",
					"patching_rect" : [ 53.0, 259.0, 338.0, 20.0 ],
					"numinlets" : 2
				}

			}
 ],
		"lines" : [ 			{
				"patchline" : 				{
					"source" : [ "obj-138", 0 ],
					"destination" : [ "obj-61", 0 ],
					"hidden" : 0,
					"midpoints" : [  ]
				}

			}
, 			{
				"patchline" : 				{
					"source" : [ "obj-93", 0 ],
					"destination" : [ "obj-138", 0 ],
					"hidden" : 0,
					"midpoints" : [  ]
				}

			}
, 			{
				"patchline" : 				{
					"source" : [ "obj-130", 0 ],
					"destination" : [ "obj-138", 0 ],
					"hidden" : 0,
					"midpoints" : [  ]
				}

			}
, 			{
				"patchline" : 				{
					"source" : [ "obj-129", 0 ],
					"destination" : [ "obj-130", 0 ],
					"hidden" : 0,
					"midpoints" : [  ]
				}

			}
, 			{
				"patchline" : 				{
					"source" : [ "obj-1", 0 ],
					"destination" : [ "obj-93", 0 ],
					"hidden" : 0,
					"midpoints" : [ 77.5, 175.0, 62.649536, 175.0 ]
				}

			}
, 			{
				"patchline" : 				{
					"source" : [ "obj-96", 1 ],
					"destination" : [ "obj-93", 0 ],
					"hidden" : 0,
					"midpoints" : [  ]
				}

			}
, 			{
				"patchline" : 				{
					"source" : [ "obj-96", 0 ],
					"destination" : [ "obj-97", 0 ],
					"hidden" : 0,
					"midpoints" : [  ]
				}

			}
, 			{
				"patchline" : 				{
					"source" : [ "obj-96", 2 ],
					"destination" : [ "obj-97", 0 ],
					"hidden" : 0,
					"midpoints" : [ 81.5, 117.0, 43.5, 117.0 ]
				}

			}
, 			{
				"patchline" : 				{
					"source" : [ "obj-3", 0 ],
					"destination" : [ "obj-95", 0 ],
					"hidden" : 0,
					"midpoints" : [  ]
				}

			}
, 			{
				"patchline" : 				{
					"source" : [ "obj-95", 0 ],
					"destination" : [ "obj-96", 0 ],
					"hidden" : 0,
					"midpoints" : [  ]
				}

			}
, 			{
				"patchline" : 				{
					"source" : [ "obj-101", 0 ],
					"destination" : [ "obj-99", 0 ],
					"hidden" : 0,
					"midpoints" : [  ]
				}

			}
, 			{
				"patchline" : 				{
					"source" : [ "obj-99", 1 ],
					"destination" : [ "obj-3", 0 ],
					"hidden" : 0,
					"midpoints" : [  ]
				}

			}
, 			{
				"patchline" : 				{
					"source" : [ "obj-61", 0 ],
					"destination" : [ "obj-62", 0 ],
					"hidden" : 0,
					"midpoints" : [  ]
				}

			}
 ]
	}

}
