{
	"patcher" : 	{
		"fileversion" : 1,
		"rect" : [ 309.0, 272.0, 580.0, 279.0 ],
		"bglocked" : 0,
		"defrect" : [ 309.0, 272.0, 580.0, 279.0 ],
		"openrect" : [ 0.0, 0.0, 0.0, 0.0 ],
		"openinpresentation" : 0,
		"default_fontsize" : 12.0,
		"default_fontface" : 0,
		"default_fontname" : "Arial",
		"gridonopen" : 0,
		"gridsize" : [ 15.0, 15.0 ],
		"gridsnaponopen" : 0,
		"toolbarvisible" : 1,
		"boxanimatetime" : 200,
		"imprint" : 0,
		"enablehscroll" : 1,
		"enablevscroll" : 1,
		"devicewidth" : 0.0,
		"boxes" : [ 			{
				"box" : 				{
					"maxclass" : "newobj",
					"text" : "out 3",
					"id" : "obj-14",
					"numinlets" : 1,
					"patching_rect" : [ 343.0, 254.0, 37.0, 20.0 ],
					"numoutlets" : 0,
					"fontname" : "Arial",
					"fontsize" : 12.0,
					"saved_object_attributes" : 					{

					}

				}

			}
, 			{
				"box" : 				{
					"maxclass" : "newobj",
					"text" : "switch 9",
					"id" : "obj-12",
					"numinlets" : 10,
					"patching_rect" : [ 342.685394, 229.865936, 140.5, 20.0 ],
					"numoutlets" : 1,
					"fontname" : "Arial",
					"outlettype" : [ "" ],
					"fontsize" : 12.0
				}

			}
, 			{
				"box" : 				{
					"maxclass" : "gswitch",
					"id" : "obj-8",
					"numinlets" : 3,
					"patching_rect" : [ 204.130707, 221.559204, 41.0, 32.0 ],
					"numoutlets" : 1,
					"outlettype" : [ "" ]
				}

			}
, 			{
				"box" : 				{
					"maxclass" : "newobj",
					"text" : "switch 9",
					"id" : "obj-7",
					"numinlets" : 10,
					"patching_rect" : [ 225.685394, 187.865936, 140.5, 20.0 ],
					"numoutlets" : 1,
					"fontname" : "Arial",
					"outlettype" : [ "" ],
					"fontsize" : 12.0
				}

			}
, 			{
				"box" : 				{
					"maxclass" : "newobj",
					"text" : "out 2",
					"id" : "obj-1",
					"numinlets" : 1,
					"patching_rect" : [ 204.0, 254.0, 37.0, 20.0 ],
					"numoutlets" : 0,
					"fontname" : "Arial",
					"fontsize" : 12.0,
					"saved_object_attributes" : 					{
						"attr_comment" : ""
					}

				}

			}
, 			{
				"box" : 				{
					"maxclass" : "newobj",
					"text" : "p manualRnd",
					"id" : "obj-13",
					"numinlets" : 1,
					"color" : [ 0.929412, 0.360784, 0.866667, 1.0 ],
					"patching_rect" : [ 79.685394, 61.518219, 82.0, 20.0 ],
					"numoutlets" : 1,
					"fontname" : "Arial",
					"outlettype" : [ "bang" ],
					"fontsize" : 12.0,
					"patcher" : 					{
						"fileversion" : 1,
						"rect" : [ 509.0, 381.0, 233.0, 248.0 ],
						"bglocked" : 0,
						"defrect" : [ 509.0, 381.0, 233.0, 248.0 ],
						"openrect" : [ 0.0, 0.0, 0.0, 0.0 ],
						"openinpresentation" : 0,
						"default_fontsize" : 12.0,
						"default_fontface" : 0,
						"default_fontname" : "Arial",
						"gridonopen" : 0,
						"gridsize" : [ 15.0, 15.0 ],
						"gridsnaponopen" : 0,
						"toolbarvisible" : 1,
						"boxanimatetime" : 200,
						"imprint" : 0,
						"enablehscroll" : 1,
						"enablevscroll" : 1,
						"devicewidth" : 0.0,
						"boxes" : [ 							{
								"box" : 								{
									"maxclass" : "newobj",
									"text" : "b",
									"id" : "obj-1",
									"numinlets" : 1,
									"patching_rect" : [ 51.0, 71.0, 32.5, 20.0 ],
									"numoutlets" : 2,
									"fontname" : "Arial",
									"outlettype" : [ "bang", "bang" ],
									"fontsize" : 12.0
								}

							}
, 							{
								"box" : 								{
									"maxclass" : "inlet",
									"id" : "obj-8",
									"numinlets" : 0,
									"patching_rect" : [ 51.314606, 40.0, 25.0, 25.0 ],
									"numoutlets" : 1,
									"outlettype" : [ "" ],
									"comment" : ""
								}

							}
, 							{
								"box" : 								{
									"maxclass" : "outlet",
									"id" : "obj-12",
									"numinlets" : 1,
									"patching_rect" : [ 51.314606, 104.0, 25.0, 25.0 ],
									"numoutlets" : 0,
									"comment" : ""
								}

							}
 ],
						"lines" : [ 							{
								"patchline" : 								{
									"source" : [ "obj-1", 0 ],
									"destination" : [ "obj-12", 0 ],
									"hidden" : 0,
									"midpoints" : [  ]
								}

							}
, 							{
								"patchline" : 								{
									"source" : [ "obj-8", 0 ],
									"destination" : [ "obj-1", 0 ],
									"hidden" : 0,
									"midpoints" : [  ]
								}

							}
 ]
					}
,
					"saved_object_attributes" : 					{
						"globalpatchername" : "",
						"default_fontface" : 0,
						"fontname" : "Arial",
						"default_fontname" : "Arial",
						"default_fontsize" : 12.0,
						"fontface" : 0,
						"fontsize" : 12.0
					}

				}

			}
, 			{
				"box" : 				{
					"maxclass" : "newobj",
					"text" : "in 8",
					"id" : "obj-11",
					"numinlets" : 1,
					"patching_rect" : [ 538.0, 38.0, 30.0, 20.0 ],
					"numoutlets" : 1,
					"fontname" : "Arial",
					"outlettype" : [ "" ],
					"fontsize" : 12.0,
					"saved_object_attributes" : 					{
						"attr_comment" : ""
					}

				}

			}
, 			{
				"box" : 				{
					"maxclass" : "newobj",
					"text" : "in 7",
					"id" : "obj-10",
					"numinlets" : 1,
					"patching_rect" : [ 446.0, 37.0, 30.0, 20.0 ],
					"numoutlets" : 1,
					"fontname" : "Arial",
					"outlettype" : [ "" ],
					"fontsize" : 12.0,
					"saved_object_attributes" : 					{
						"attr_comment" : ""
					}

				}

			}
, 			{
				"box" : 				{
					"maxclass" : "newobj",
					"text" : "p control-lfo",
					"id" : "obj-105",
					"numinlets" : 2,
					"color" : [ 0.929412, 0.360784, 0.866667, 1.0 ],
					"patching_rect" : [ 484.0, 93.0, 73.0, 18.0 ],
					"numoutlets" : 1,
					"fontname" : "Arial",
					"outlettype" : [ "float" ],
					"fontsize" : 10.0,
					"patcher" : 					{
						"fileversion" : 1,
						"rect" : [ 446.0, 326.0, 290.0, 262.0 ],
						"bglocked" : 0,
						"defrect" : [ 446.0, 326.0, 290.0, 262.0 ],
						"openrect" : [ 0.0, 0.0, 0.0, 0.0 ],
						"openinpresentation" : 0,
						"default_fontsize" : 12.0,
						"default_fontface" : 0,
						"default_fontname" : "Arial",
						"gridonopen" : 0,
						"gridsize" : [ 15.0, 15.0 ],
						"gridsnaponopen" : 0,
						"toolbarvisible" : 1,
						"boxanimatetime" : 200,
						"imprint" : 0,
						"enablehscroll" : 1,
						"enablevscroll" : 1,
						"devicewidth" : 0.0,
						"boxes" : [ 							{
								"box" : 								{
									"maxclass" : "message",
									"text" : "3",
									"id" : "obj-14",
									"numinlets" : 2,
									"patching_rect" : [ 33.0, 67.0, 32.5, 18.0 ],
									"numoutlets" : 1,
									"fontname" : "Arial",
									"outlettype" : [ "" ],
									"fontsize" : 12.0
								}

							}
, 							{
								"box" : 								{
									"maxclass" : "message",
									"text" : "2",
									"id" : "obj-12",
									"numinlets" : 2,
									"patching_rect" : [ 20.0, 87.0, 32.5, 18.0 ],
									"numoutlets" : 1,
									"fontname" : "Arial",
									"outlettype" : [ "" ],
									"fontsize" : 12.0
								}

							}
, 							{
								"box" : 								{
									"maxclass" : "message",
									"text" : "1",
									"id" : "obj-8",
									"numinlets" : 2,
									"patching_rect" : [ 6.0, 107.0, 32.5, 18.0 ],
									"numoutlets" : 1,
									"fontname" : "Arial",
									"outlettype" : [ "" ],
									"fontsize" : 12.0
								}

							}
, 							{
								"box" : 								{
									"maxclass" : "newobj",
									"text" : "sel 7 8 9",
									"id" : "obj-7",
									"numinlets" : 1,
									"patching_rect" : [ 6.0, 34.0, 59.5, 18.0 ],
									"numoutlets" : 4,
									"fontname" : "Arial",
									"outlettype" : [ "bang", "bang", "bang", "" ],
									"fontsize" : 10.0
								}

							}
, 							{
								"box" : 								{
									"maxclass" : "newobj",
									"text" : "loadmess 1",
									"id" : "obj-4",
									"numinlets" : 1,
									"patching_rect" : [ 149.0, 33.0, 72.0, 20.0 ],
									"numoutlets" : 1,
									"fontname" : "Arial",
									"outlettype" : [ "" ],
									"fontsize" : 12.0
								}

							}
, 							{
								"box" : 								{
									"maxclass" : "outlet",
									"id" : "obj-2",
									"numinlets" : 1,
									"patching_rect" : [ 57.0, 229.0, 25.0, 25.0 ],
									"numoutlets" : 0,
									"comment" : ""
								}

							}
, 							{
								"box" : 								{
									"maxclass" : "newobj",
									"text" : "float 0.",
									"id" : "obj-1",
									"numinlets" : 2,
									"patching_rect" : [ 57.0, 199.0, 47.0, 20.0 ],
									"numoutlets" : 1,
									"fontname" : "Arial",
									"outlettype" : [ "float" ],
									"fontsize" : 12.0
								}

							}
, 							{
								"box" : 								{
									"maxclass" : "inlet",
									"id" : "obj-101",
									"numinlets" : 0,
									"patching_rect" : [ 6.0, 4.0, 25.0, 25.0 ],
									"numoutlets" : 1,
									"outlettype" : [ "" ],
									"comment" : ""
								}

							}
, 							{
								"box" : 								{
									"maxclass" : "inlet",
									"id" : "obj-104",
									"numinlets" : 0,
									"patching_rect" : [ 71.0, 4.0, 25.0, 25.0 ],
									"numoutlets" : 1,
									"outlettype" : [ "" ],
									"comment" : ""
								}

							}
, 							{
								"box" : 								{
									"maxclass" : "newobj",
									"text" : "switch 3",
									"id" : "obj-6",
									"numinlets" : 4,
									"patching_rect" : [ 57.0, 174.0, 59.5, 20.0 ],
									"numoutlets" : 1,
									"fontname" : "Arial",
									"outlettype" : [ "" ],
									"fontsize" : 12.0
								}

							}
, 							{
								"box" : 								{
									"maxclass" : "newobj",
									"text" : "snapshot~",
									"id" : "obj-5",
									"numinlets" : 2,
									"patching_rect" : [ 71.0, 81.0, 57.0, 18.0 ],
									"numoutlets" : 1,
									"fontname" : "Arial",
									"outlettype" : [ "float" ],
									"fontsize" : 10.0
								}

							}
, 							{
								"box" : 								{
									"maxclass" : "newobj",
									"text" : "zmap 0. 0.5 0. 1.",
									"id" : "obj-19",
									"numinlets" : 5,
									"patching_rect" : [ 195.0, 147.0, 85.0, 18.0 ],
									"numoutlets" : 1,
									"fontname" : "Arial",
									"outlettype" : [ "" ],
									"fontsize" : 10.0
								}

							}
, 							{
								"box" : 								{
									"maxclass" : "newobj",
									"text" : "- 0.5",
									"id" : "obj-20",
									"numinlets" : 2,
									"patching_rect" : [ 194.0, 107.0, 32.5, 18.0 ],
									"numoutlets" : 1,
									"fontname" : "Arial",
									"outlettype" : [ "float" ],
									"fontsize" : 10.0
								}

							}
, 							{
								"box" : 								{
									"maxclass" : "newobj",
									"text" : "abs 0.",
									"id" : "obj-21",
									"numinlets" : 1,
									"patching_rect" : [ 194.0, 127.0, 38.0, 18.0 ],
									"numoutlets" : 1,
									"fontname" : "Arial",
									"outlettype" : [ "float" ],
									"fontsize" : 10.0
								}

							}
, 							{
								"box" : 								{
									"maxclass" : "newobj",
									"text" : "zmap -1. 1. 0. 1.",
									"id" : "obj-18",
									"numinlets" : 5,
									"patching_rect" : [ 111.0, 147.0, 83.0, 18.0 ],
									"numoutlets" : 1,
									"fontname" : "Arial",
									"outlettype" : [ "" ],
									"fontsize" : 10.0
								}

							}
, 							{
								"box" : 								{
									"maxclass" : "newobj",
									"text" : "* 6.28",
									"id" : "obj-13",
									"numinlets" : 2,
									"patching_rect" : [ 111.0, 107.0, 37.0, 18.0 ],
									"numoutlets" : 1,
									"fontname" : "Arial",
									"outlettype" : [ "float" ],
									"fontsize" : 10.0
								}

							}
, 							{
								"box" : 								{
									"maxclass" : "newobj",
									"text" : "sin",
									"id" : "obj-11",
									"numinlets" : 1,
									"patching_rect" : [ 111.0, 127.0, 23.0, 18.0 ],
									"numoutlets" : 1,
									"fontname" : "Arial",
									"outlettype" : [ "float" ],
									"fontsize" : 10.0
								}

							}
, 							{
								"box" : 								{
									"maxclass" : "newobj",
									"text" : "metro 100",
									"id" : "obj-9",
									"numinlets" : 2,
									"patching_rect" : [ 149.0, 57.0, 56.0, 18.0 ],
									"numoutlets" : 1,
									"fontname" : "Arial",
									"outlettype" : [ "bang" ],
									"fontsize" : 10.0
								}

							}
, 							{
								"box" : 								{
									"maxclass" : "newobj",
									"text" : "phasor~ 1.",
									"id" : "obj-10",
									"numinlets" : 2,
									"patching_rect" : [ 71.0, 34.0, 58.0, 18.0 ],
									"numoutlets" : 1,
									"fontname" : "Arial",
									"outlettype" : [ "signal" ],
									"fontsize" : 10.0
								}

							}
 ],
						"lines" : [ 							{
								"patchline" : 								{
									"source" : [ "obj-9", 0 ],
									"destination" : [ "obj-5", 0 ],
									"hidden" : 0,
									"midpoints" : [ 158.5, 77.0, 80.5, 77.0 ]
								}

							}
, 							{
								"patchline" : 								{
									"source" : [ "obj-4", 0 ],
									"destination" : [ "obj-9", 0 ],
									"hidden" : 0,
									"midpoints" : [  ]
								}

							}
, 							{
								"patchline" : 								{
									"source" : [ "obj-8", 0 ],
									"destination" : [ "obj-6", 0 ],
									"hidden" : 0,
									"midpoints" : [ 15.5, 169.0, 66.5, 169.0 ]
								}

							}
, 							{
								"patchline" : 								{
									"source" : [ "obj-12", 0 ],
									"destination" : [ "obj-6", 0 ],
									"hidden" : 0,
									"midpoints" : [ 29.5, 169.0, 66.5, 169.0 ]
								}

							}
, 							{
								"patchline" : 								{
									"source" : [ "obj-14", 0 ],
									"destination" : [ "obj-6", 0 ],
									"hidden" : 0,
									"midpoints" : [ 42.5, 169.0, 66.5, 169.0 ]
								}

							}
, 							{
								"patchline" : 								{
									"source" : [ "obj-7", 2 ],
									"destination" : [ "obj-14", 0 ],
									"hidden" : 0,
									"midpoints" : [  ]
								}

							}
, 							{
								"patchline" : 								{
									"source" : [ "obj-7", 1 ],
									"destination" : [ "obj-12", 0 ],
									"hidden" : 0,
									"midpoints" : [  ]
								}

							}
, 							{
								"patchline" : 								{
									"source" : [ "obj-7", 0 ],
									"destination" : [ "obj-8", 0 ],
									"hidden" : 0,
									"midpoints" : [  ]
								}

							}
, 							{
								"patchline" : 								{
									"source" : [ "obj-101", 0 ],
									"destination" : [ "obj-7", 0 ],
									"hidden" : 0,
									"midpoints" : [  ]
								}

							}
, 							{
								"patchline" : 								{
									"source" : [ "obj-19", 0 ],
									"destination" : [ "obj-6", 3 ],
									"hidden" : 0,
									"midpoints" : [ 204.5, 169.0, 107.0, 169.0 ]
								}

							}
, 							{
								"patchline" : 								{
									"source" : [ "obj-18", 0 ],
									"destination" : [ "obj-6", 2 ],
									"hidden" : 0,
									"midpoints" : [ 120.5, 169.0, 93.5, 169.0 ]
								}

							}
, 							{
								"patchline" : 								{
									"source" : [ "obj-5", 0 ],
									"destination" : [ "obj-6", 1 ],
									"hidden" : 0,
									"midpoints" : [  ]
								}

							}
, 							{
								"patchline" : 								{
									"source" : [ "obj-10", 0 ],
									"destination" : [ "obj-5", 0 ],
									"hidden" : 0,
									"midpoints" : [  ]
								}

							}
, 							{
								"patchline" : 								{
									"source" : [ "obj-5", 0 ],
									"destination" : [ "obj-20", 0 ],
									"hidden" : 0,
									"midpoints" : [ 80.5, 102.0, 203.5, 102.0 ]
								}

							}
, 							{
								"patchline" : 								{
									"source" : [ "obj-5", 0 ],
									"destination" : [ "obj-13", 0 ],
									"hidden" : 0,
									"midpoints" : [ 80.5, 102.0, 120.5, 102.0 ]
								}

							}
, 							{
								"patchline" : 								{
									"source" : [ "obj-20", 0 ],
									"destination" : [ "obj-21", 0 ],
									"hidden" : 0,
									"midpoints" : [  ]
								}

							}
, 							{
								"patchline" : 								{
									"source" : [ "obj-21", 0 ],
									"destination" : [ "obj-19", 0 ],
									"hidden" : 0,
									"midpoints" : [  ]
								}

							}
, 							{
								"patchline" : 								{
									"source" : [ "obj-13", 0 ],
									"destination" : [ "obj-11", 0 ],
									"hidden" : 0,
									"midpoints" : [  ]
								}

							}
, 							{
								"patchline" : 								{
									"source" : [ "obj-11", 0 ],
									"destination" : [ "obj-18", 0 ],
									"hidden" : 0,
									"midpoints" : [  ]
								}

							}
, 							{
								"patchline" : 								{
									"source" : [ "obj-104", 0 ],
									"destination" : [ "obj-10", 0 ],
									"hidden" : 0,
									"midpoints" : [  ]
								}

							}
, 							{
								"patchline" : 								{
									"source" : [ "obj-1", 0 ],
									"destination" : [ "obj-2", 0 ],
									"hidden" : 0,
									"midpoints" : [  ]
								}

							}
, 							{
								"patchline" : 								{
									"source" : [ "obj-6", 0 ],
									"destination" : [ "obj-1", 0 ],
									"hidden" : 0,
									"midpoints" : [  ]
								}

							}
 ]
					}
,
					"saved_object_attributes" : 					{
						"globalpatchername" : "",
						"default_fontface" : 0,
						"fontname" : "Arial",
						"default_fontname" : "Arial",
						"default_fontsize" : 12.0,
						"fontface" : 0,
						"fontsize" : 12.0
					}

				}

			}
, 			{
				"box" : 				{
					"maxclass" : "newobj",
					"text" : "in 2",
					"id" : "obj-2",
					"numinlets" : 1,
					"patching_rect" : [ 80.0, 35.0, 30.0, 20.0 ],
					"numoutlets" : 1,
					"fontname" : "Arial",
					"outlettype" : [ "" ],
					"fontsize" : 12.0,
					"saved_object_attributes" : 					{
						"attr_comment" : ""
					}

				}

			}
, 			{
				"box" : 				{
					"maxclass" : "newobj",
					"text" : "in 6",
					"id" : "obj-42",
					"numinlets" : 1,
					"patching_rect" : [ 418.0, 37.0, 30.0, 20.0 ],
					"numoutlets" : 1,
					"fontname" : "Arial",
					"outlettype" : [ "" ],
					"fontsize" : 12.0,
					"saved_object_attributes" : 					{
						"attr_comment" : ""
					}

				}

			}
, 			{
				"box" : 				{
					"maxclass" : "newobj",
					"text" : "in 5",
					"id" : "obj-41",
					"numinlets" : 1,
					"patching_rect" : [ 367.0, 37.0, 30.0, 20.0 ],
					"numoutlets" : 1,
					"fontname" : "Arial",
					"outlettype" : [ "" ],
					"fontsize" : 12.0,
					"saved_object_attributes" : 					{
						"attr_comment" : ""
					}

				}

			}
, 			{
				"box" : 				{
					"maxclass" : "newobj",
					"text" : "in 4",
					"id" : "obj-40",
					"numinlets" : 1,
					"patching_rect" : [ 336.0, 37.0, 30.0, 20.0 ],
					"numoutlets" : 1,
					"fontname" : "Arial",
					"outlettype" : [ "" ],
					"fontsize" : 12.0,
					"saved_object_attributes" : 					{
						"attr_comment" : ""
					}

				}

			}
, 			{
				"box" : 				{
					"maxclass" : "newobj",
					"text" : "in 3",
					"id" : "obj-39",
					"numinlets" : 1,
					"patching_rect" : [ 281.0, 37.0, 30.0, 20.0 ],
					"numoutlets" : 1,
					"fontname" : "Arial",
					"outlettype" : [ "" ],
					"fontsize" : 12.0,
					"saved_object_attributes" : 					{
						"attr_comment" : ""
					}

				}

			}
, 			{
				"box" : 				{
					"maxclass" : "newobj",
					"text" : "in 1",
					"id" : "obj-36",
					"numinlets" : 1,
					"patching_rect" : [ 15.0, 7.0, 30.0, 20.0 ],
					"numoutlets" : 1,
					"fontname" : "Arial",
					"outlettype" : [ "" ],
					"fontsize" : 12.0,
					"saved_object_attributes" : 					{

					}

				}

			}
, 			{
				"box" : 				{
					"maxclass" : "newobj",
					"text" : "out 1",
					"id" : "obj-18",
					"numinlets" : 1,
					"patching_rect" : [ 69.0, 193.0, 37.0, 20.0 ],
					"numoutlets" : 0,
					"fontname" : "Arial",
					"fontsize" : 12.0,
					"saved_object_attributes" : 					{
						"attr_comment" : ""
					}

				}

			}
, 			{
				"box" : 				{
					"maxclass" : "newobj",
					"text" : "p triggers",
					"id" : "obj-151",
					"numinlets" : 3,
					"color" : [ 0.929412, 0.360784, 0.866667, 1.0 ],
					"patching_rect" : [ 389.579071, 91.941223, 75.0, 20.0 ],
					"numoutlets" : 2,
					"fontname" : "Arial",
					"outlettype" : [ "bang", "float" ],
					"fontsize" : 12.0,
					"patcher" : 					{
						"fileversion" : 1,
						"rect" : [ 368.0, 138.0, 887.0, 353.0 ],
						"bglocked" : 0,
						"defrect" : [ 368.0, 138.0, 887.0, 353.0 ],
						"openrect" : [ 0.0, 0.0, 0.0, 0.0 ],
						"openinpresentation" : 0,
						"default_fontsize" : 12.0,
						"default_fontface" : 0,
						"default_fontname" : "Arial",
						"gridonopen" : 0,
						"gridsize" : [ 15.0, 15.0 ],
						"gridsnaponopen" : 0,
						"toolbarvisible" : 1,
						"boxanimatetime" : 200,
						"imprint" : 0,
						"enablehscroll" : 1,
						"enablevscroll" : 1,
						"devicewidth" : 0.0,
						"boxes" : [ 							{
								"box" : 								{
									"maxclass" : "newobj",
									"text" : "p levels",
									"id" : "obj-27",
									"numinlets" : 0,
									"patching_rect" : [ 19.0, 132.0, 59.5, 20.0 ],
									"numoutlets" : 4,
									"fontname" : "Arial",
									"outlettype" : [ "", "", "", "" ],
									"fontsize" : 12.0,
									"patcher" : 									{
										"fileversion" : 1,
										"rect" : [ 25.0, 69.0, 640.0, 480.0 ],
										"bglocked" : 0,
										"defrect" : [ 25.0, 69.0, 640.0, 480.0 ],
										"openrect" : [ 0.0, 0.0, 0.0, 0.0 ],
										"openinpresentation" : 0,
										"default_fontsize" : 12.0,
										"default_fontface" : 0,
										"default_fontname" : "Arial",
										"gridonopen" : 0,
										"gridsize" : [ 15.0, 15.0 ],
										"gridsnaponopen" : 0,
										"toolbarvisible" : 1,
										"boxanimatetime" : 200,
										"imprint" : 0,
										"enablehscroll" : 1,
										"enablevscroll" : 1,
										"devicewidth" : 0.0,
										"boxes" : [ 											{
												"box" : 												{
													"maxclass" : "newobj",
													"varname" : "activeObj",
													"text" : "active",
													"id" : "obj-1",
													"numinlets" : 0,
													"patching_rect" : [ 126.0, 69.0, 46.200001, 20.0 ],
													"numoutlets" : 1,
													"fontname" : "Arial",
													"outlettype" : [ "int" ],
													"fontsize" : 12.0
												}

											}
, 											{
												"box" : 												{
													"maxclass" : "newobj",
													"varname" : "scriptPatcher",
													"text" : "p script",
													"id" : "obj-37",
													"numinlets" : 1,
													"color" : [ 0.929412, 0.360784, 0.866667, 1.0 ],
													"patching_rect" : [ 126.0, 103.0, 49.0, 20.0 ],
													"numoutlets" : 1,
													"fontname" : "Arial",
													"outlettype" : [ "" ],
													"fontsize" : 12.0,
													"patcher" : 													{
														"fileversion" : 1,
														"rect" : [ 660.0, 44.0, 539.0, 374.0 ],
														"bglocked" : 0,
														"defrect" : [ 660.0, 44.0, 539.0, 374.0 ],
														"openrect" : [ 0.0, 0.0, 0.0, 0.0 ],
														"openinpresentation" : 0,
														"default_fontsize" : 12.0,
														"default_fontface" : 0,
														"default_fontname" : "Arial",
														"gridonopen" : 0,
														"gridsize" : [ 15.0, 15.0 ],
														"gridsnaponopen" : 0,
														"toolbarvisible" : 1,
														"boxanimatetime" : 200,
														"imprint" : 0,
														"enablehscroll" : 1,
														"enablevscroll" : 1,
														"devicewidth" : 0.0,
														"boxes" : [ 															{
																"box" : 																{
																	"maxclass" : "message",
																	"text" : "script delete activeObj",
																	"id" : "obj-15",
																	"numinlets" : 2,
																	"patching_rect" : [ 326.0, 167.0, 129.0, 18.0 ],
																	"numoutlets" : 1,
																	"fontname" : "Arial",
																	"outlettype" : [ "" ],
																	"fontsize" : 12.0
																}

															}
, 															{
																"box" : 																{
																	"maxclass" : "newobj",
																	"text" : "loadmess 1",
																	"id" : "obj-3",
																	"numinlets" : 1,
																	"patching_rect" : [ 21.0, 15.0, 72.0, 20.0 ],
																	"numoutlets" : 1,
																	"fontname" : "Arial",
																	"outlettype" : [ "" ],
																	"fontsize" : 12.0
																}

															}
, 															{
																"box" : 																{
																	"maxclass" : "newobj",
																	"text" : "gate",
																	"id" : "obj-9",
																	"numinlets" : 2,
																	"patching_rect" : [ 21.0, 42.0, 34.0, 20.0 ],
																	"numoutlets" : 1,
																	"fontname" : "Arial",
																	"outlettype" : [ "" ],
																	"fontsize" : 12.0
																}

															}
, 															{
																"box" : 																{
																	"maxclass" : "inlet",
																	"id" : "obj-14",
																	"numinlets" : 0,
																	"patching_rect" : [ 123.0, 3.0, 25.0, 25.0 ],
																	"numoutlets" : 1,
																	"outlettype" : [ "" ],
																	"comment" : ""
																}

															}
, 															{
																"box" : 																{
																	"maxclass" : "newobj",
																	"text" : "delay 200",
																	"id" : "obj-7",
																	"numinlets" : 2,
																	"patching_rect" : [ 313.0, 116.0, 63.0, 20.0 ],
																	"numoutlets" : 1,
																	"fontname" : "Arial",
																	"outlettype" : [ "bang" ],
																	"fontsize" : 12.0
																}

															}
, 															{
																"box" : 																{
																	"maxclass" : "message",
																	"text" : "script delete scriptPatcher",
																	"id" : "obj-1",
																	"numinlets" : 2,
																	"patching_rect" : [ 313.0, 142.0, 149.0, 18.0 ],
																	"numoutlets" : 1,
																	"fontname" : "Arial",
																	"outlettype" : [ "" ],
																	"fontsize" : 12.0
																}

															}
, 															{
																"box" : 																{
																	"maxclass" : "message",
																	"text" : "script delete levels",
																	"id" : "obj-4",
																	"numinlets" : 2,
																	"patching_rect" : [ 22.0, 98.0, 109.0, 18.0 ],
																	"numoutlets" : 1,
																	"fontname" : "Arial",
																	"outlettype" : [ "" ],
																	"fontsize" : 12.0
																}

															}
, 															{
																"box" : 																{
																	"maxclass" : "newobj",
																	"text" : "sel 1",
																	"id" : "obj-10",
																	"numinlets" : 2,
																	"patching_rect" : [ 21.0, 68.0, 39.600002, 20.0 ],
																	"numoutlets" : 2,
																	"fontname" : "Arial",
																	"outlettype" : [ "bang", "" ],
																	"fontsize" : 12.0
																}

															}
, 															{
																"box" : 																{
																	"maxclass" : "outlet",
																	"id" : "obj-36",
																	"numinlets" : 1,
																	"patching_rect" : [ 22.0, 329.0, 25.0, 25.0 ],
																	"numoutlets" : 0,
																	"comment" : ""
																}

															}
 ],
														"lines" : [ 															{
																"patchline" : 																{
																	"source" : [ "obj-15", 0 ],
																	"destination" : [ "obj-36", 0 ],
																	"hidden" : 0,
																	"midpoints" : [ 335.5, 315.0, 31.5, 315.0 ]
																}

															}
, 															{
																"patchline" : 																{
																	"source" : [ "obj-7", 0 ],
																	"destination" : [ "obj-15", 0 ],
																	"hidden" : 0,
																	"midpoints" : [  ]
																}

															}
, 															{
																"patchline" : 																{
																	"source" : [ "obj-14", 0 ],
																	"destination" : [ "obj-9", 1 ],
																	"hidden" : 0,
																	"midpoints" : [ 132.5, 47.0, 57.0, 47.0, 57.0, 38.0, 45.5, 38.0 ]
																}

															}
, 															{
																"patchline" : 																{
																	"source" : [ "obj-9", 0 ],
																	"destination" : [ "obj-10", 0 ],
																	"hidden" : 0,
																	"midpoints" : [  ]
																}

															}
, 															{
																"patchline" : 																{
																	"source" : [ "obj-3", 0 ],
																	"destination" : [ "obj-9", 0 ],
																	"hidden" : 0,
																	"midpoints" : [  ]
																}

															}
, 															{
																"patchline" : 																{
																	"source" : [ "obj-4", 0 ],
																	"destination" : [ "obj-36", 0 ],
																	"hidden" : 0,
																	"midpoints" : [  ]
																}

															}
, 															{
																"patchline" : 																{
																	"source" : [ "obj-10", 0 ],
																	"destination" : [ "obj-4", 0 ],
																	"hidden" : 0,
																	"midpoints" : [  ]
																}

															}
, 															{
																"patchline" : 																{
																	"source" : [ "obj-10", 0 ],
																	"destination" : [ "obj-7", 0 ],
																	"hidden" : 0,
																	"midpoints" : [ 30.5, 92.0, 322.5, 92.0 ]
																}

															}
, 															{
																"patchline" : 																{
																	"source" : [ "obj-7", 0 ],
																	"destination" : [ "obj-1", 0 ],
																	"hidden" : 0,
																	"midpoints" : [  ]
																}

															}
, 															{
																"patchline" : 																{
																	"source" : [ "obj-1", 0 ],
																	"destination" : [ "obj-36", 0 ],
																	"hidden" : 0,
																	"midpoints" : [ 322.5, 315.0, 31.5, 315.0 ]
																}

															}
 ]
													}
,
													"saved_object_attributes" : 													{
														"globalpatchername" : "",
														"default_fontface" : 0,
														"fontname" : "Arial",
														"default_fontname" : "Arial",
														"default_fontsize" : 12.0,
														"fontface" : 0,
														"fontsize" : 12.0
													}

												}

											}
, 											{
												"box" : 												{
													"maxclass" : "newobj",
													"text" : "thispatcher",
													"id" : "obj-166",
													"numinlets" : 1,
													"patching_rect" : [ 126.0, 127.0, 67.0, 20.0 ],
													"numoutlets" : 2,
													"fontname" : "Arial",
													"outlettype" : [ "", "" ],
													"fontsize" : 11.595187,
													"save" : [ "#N", "thispatcher", ";", "#Q", "end", ";" ]
												}

											}
, 											{
												"box" : 												{
													"maxclass" : "newobj",
													"varname" : "levels",
													"text" : "p levels",
													"id" : "obj-21",
													"numinlets" : 0,
													"patching_rect" : [ 50.0, 100.0, 59.5, 20.0 ],
													"numoutlets" : 4,
													"fontname" : "Arial",
													"outlettype" : [ "", "", "", "" ],
													"fontsize" : 12.0,
													"patcher" : 													{
														"fileversion" : 1,
														"rect" : [ 0.0, 0.0, 640.0, 480.0 ],
														"bglocked" : 0,
														"defrect" : [ 0.0, 0.0, 640.0, 480.0 ],
														"openrect" : [ 0.0, 0.0, 0.0, 0.0 ],
														"openinpresentation" : 0,
														"default_fontsize" : 12.0,
														"default_fontface" : 0,
														"default_fontname" : "Arial",
														"gridonopen" : 0,
														"gridsize" : [ 15.0, 15.0 ],
														"gridsnaponopen" : 0,
														"toolbarvisible" : 1,
														"boxanimatetime" : 200,
														"imprint" : 0,
														"enablehscroll" : 1,
														"enablevscroll" : 1,
														"devicewidth" : 0.0,
														"boxes" : [ 															{
																"box" : 																{
																	"maxclass" : "newobj",
																	"text" : "r levelTrig",
																	"id" : "obj-17",
																	"numinlets" : 0,
																	"patching_rect" : [ 50.0, 100.0, 61.0, 20.0 ],
																	"numoutlets" : 1,
																	"fontname" : "Arial",
																	"outlettype" : [ "" ],
																	"fontsize" : 12.0
																}

															}
, 															{
																"box" : 																{
																	"maxclass" : "newobj",
																	"text" : "r levelHigh",
																	"id" : "obj-40",
																	"numinlets" : 0,
																	"patching_rect" : [ 242.452942, 100.022125, 67.0, 20.0 ],
																	"numoutlets" : 1,
																	"fontname" : "Arial",
																	"outlettype" : [ "" ],
																	"fontsize" : 12.0
																}

															}
, 															{
																"box" : 																{
																	"maxclass" : "newobj",
																	"text" : "r levelMid",
																	"id" : "obj-39",
																	"numinlets" : 0,
																	"patching_rect" : [ 178.759644, 100.0, 62.0, 20.0 ],
																	"numoutlets" : 1,
																	"fontname" : "Arial",
																	"outlettype" : [ "" ],
																	"fontsize" : 12.0
																}

															}
, 															{
																"box" : 																{
																	"maxclass" : "newobj",
																	"text" : "r levelLow",
																	"id" : "obj-150",
																	"numinlets" : 0,
																	"patching_rect" : [ 113.0, 100.0, 65.0, 20.0 ],
																	"numoutlets" : 1,
																	"fontname" : "Arial",
																	"outlettype" : [ "" ],
																	"fontsize" : 12.0
																}

															}
, 															{
																"box" : 																{
																	"maxclass" : "outlet",
																	"id" : "obj-8",
																	"numinlets" : 1,
																	"patching_rect" : [ 50.0, 180.022125, 25.0, 25.0 ],
																	"numoutlets" : 0,
																	"comment" : ""
																}

															}
, 															{
																"box" : 																{
																	"maxclass" : "outlet",
																	"id" : "obj-10",
																	"numinlets" : 1,
																	"patching_rect" : [ 113.0, 180.022125, 25.0, 25.0 ],
																	"numoutlets" : 0,
																	"comment" : ""
																}

															}
, 															{
																"box" : 																{
																	"maxclass" : "outlet",
																	"id" : "obj-18",
																	"numinlets" : 1,
																	"patching_rect" : [ 178.759644, 180.022125, 25.0, 25.0 ],
																	"numoutlets" : 0,
																	"comment" : ""
																}

															}
, 															{
																"box" : 																{
																	"maxclass" : "outlet",
																	"id" : "obj-19",
																	"numinlets" : 1,
																	"patching_rect" : [ 242.452942, 180.022125, 25.0, 25.0 ],
																	"numoutlets" : 0,
																	"comment" : ""
																}

															}
 ],
														"lines" : [ 															{
																"patchline" : 																{
																	"source" : [ "obj-17", 0 ],
																	"destination" : [ "obj-8", 0 ],
																	"hidden" : 0,
																	"midpoints" : [  ]
																}

															}
, 															{
																"patchline" : 																{
																	"source" : [ "obj-150", 0 ],
																	"destination" : [ "obj-10", 0 ],
																	"hidden" : 0,
																	"midpoints" : [  ]
																}

															}
, 															{
																"patchline" : 																{
																	"source" : [ "obj-39", 0 ],
																	"destination" : [ "obj-18", 0 ],
																	"hidden" : 0,
																	"midpoints" : [  ]
																}

															}
, 															{
																"patchline" : 																{
																	"source" : [ "obj-40", 0 ],
																	"destination" : [ "obj-19", 0 ],
																	"hidden" : 0,
																	"midpoints" : [  ]
																}

															}
 ]
													}
,
													"saved_object_attributes" : 													{
														"globalpatchername" : "",
														"default_fontface" : 0,
														"fontname" : "Arial",
														"default_fontname" : "Arial",
														"default_fontsize" : 12.0,
														"fontface" : 0,
														"fontsize" : 12.0
													}

												}

											}
, 											{
												"box" : 												{
													"maxclass" : "outlet",
													"id" : "obj-23",
													"numinlets" : 1,
													"patching_rect" : [ 50.0, 180.0, 25.0, 25.0 ],
													"numoutlets" : 0,
													"comment" : ""
												}

											}
, 											{
												"box" : 												{
													"maxclass" : "outlet",
													"id" : "obj-24",
													"numinlets" : 1,
													"patching_rect" : [ 63.0, 180.0, 25.0, 25.0 ],
													"numoutlets" : 0,
													"comment" : ""
												}

											}
, 											{
												"box" : 												{
													"maxclass" : "outlet",
													"id" : "obj-25",
													"numinlets" : 1,
													"patching_rect" : [ 77.0, 180.0, 25.0, 25.0 ],
													"numoutlets" : 0,
													"comment" : ""
												}

											}
, 											{
												"box" : 												{
													"maxclass" : "outlet",
													"id" : "obj-26",
													"numinlets" : 1,
													"patching_rect" : [ 90.0, 180.0, 25.0, 25.0 ],
													"numoutlets" : 0,
													"comment" : ""
												}

											}
 ],
										"lines" : [ 											{
												"patchline" : 												{
													"source" : [ "obj-21", 3 ],
													"destination" : [ "obj-26", 0 ],
													"hidden" : 0,
													"midpoints" : [  ]
												}

											}
, 											{
												"patchline" : 												{
													"source" : [ "obj-21", 2 ],
													"destination" : [ "obj-25", 0 ],
													"hidden" : 0,
													"midpoints" : [  ]
												}

											}
, 											{
												"patchline" : 												{
													"source" : [ "obj-21", 1 ],
													"destination" : [ "obj-24", 0 ],
													"hidden" : 0,
													"midpoints" : [  ]
												}

											}
, 											{
												"patchline" : 												{
													"source" : [ "obj-21", 0 ],
													"destination" : [ "obj-23", 0 ],
													"hidden" : 0,
													"midpoints" : [  ]
												}

											}
, 											{
												"patchline" : 												{
													"source" : [ "obj-37", 0 ],
													"destination" : [ "obj-166", 0 ],
													"hidden" : 0,
													"midpoints" : [  ]
												}

											}
 ]
									}
,
									"saved_object_attributes" : 									{
										"globalpatchername" : "",
										"default_fontface" : 0,
										"fontname" : "Arial",
										"default_fontname" : "Arial",
										"default_fontsize" : 12.0,
										"fontface" : 0,
										"fontsize" : 12.0
									}

								}

							}
, 							{
								"box" : 								{
									"maxclass" : "newobj",
									"text" : "b",
									"id" : "obj-22",
									"numinlets" : 1,
									"patching_rect" : [ 260.0, 300.0, 32.5, 20.0 ],
									"numoutlets" : 2,
									"fontname" : "Arial",
									"outlettype" : [ "bang", "bang" ],
									"fontsize" : 12.0
								}

							}
, 							{
								"box" : 								{
									"maxclass" : "outlet",
									"id" : "obj-20",
									"numinlets" : 1,
									"patching_rect" : [ 299.0, 325.0, 25.0, 25.0 ],
									"numoutlets" : 0,
									"comment" : "Release"
								}

							}
, 							{
								"box" : 								{
									"maxclass" : "inlet",
									"id" : "obj-49",
									"numinlets" : 0,
									"patching_rect" : [ 556.0, 17.0, 25.0, 25.0 ],
									"numoutlets" : 1,
									"outlettype" : [ "" ],
									"comment" : ""
								}

							}
, 							{
								"box" : 								{
									"maxclass" : "newobj",
									"text" : "pipe 100",
									"id" : "obj-7",
									"numinlets" : 2,
									"patching_rect" : [ 108.0, 200.0, 57.0, 20.0 ],
									"numoutlets" : 1,
									"fontname" : "Arial",
									"outlettype" : [ "" ],
									"fontsize" : 12.0
								}

							}
, 							{
								"box" : 								{
									"maxclass" : "inlet",
									"id" : "obj-9",
									"numinlets" : 0,
									"patching_rect" : [ 243.0, 17.0, 25.0, 25.0 ],
									"numoutlets" : 1,
									"outlettype" : [ "" ],
									"comment" : ""
								}

							}
, 							{
								"box" : 								{
									"maxclass" : "inlet",
									"id" : "obj-2",
									"numinlets" : 0,
									"patching_rect" : [ 5.0, 5.0, 25.0, 25.0 ],
									"numoutlets" : 1,
									"outlettype" : [ "" ],
									"comment" : ""
								}

							}
, 							{
								"box" : 								{
									"maxclass" : "newobj",
									"text" : "sel 3 4 5 6",
									"id" : "obj-6",
									"numinlets" : 1,
									"patching_rect" : [ 108.0, 223.0, 73.0, 20.0 ],
									"numoutlets" : 5,
									"fontname" : "Arial",
									"outlettype" : [ "bang", "bang", "bang", "bang", "" ],
									"fontsize" : 12.0
								}

							}
, 							{
								"box" : 								{
									"maxclass" : "message",
									"text" : "0",
									"id" : "obj-5",
									"numinlets" : 2,
									"patching_rect" : [ 162.0, 250.0, 32.5, 18.0 ],
									"numoutlets" : 1,
									"fontname" : "Arial",
									"outlettype" : [ "" ],
									"fontsize" : 12.0
								}

							}
, 							{
								"box" : 								{
									"maxclass" : "message",
									"text" : "1",
									"id" : "obj-4",
									"numinlets" : 2,
									"patching_rect" : [ 108.0, 250.0, 32.5, 18.0 ],
									"numoutlets" : 1,
									"fontname" : "Arial",
									"outlettype" : [ "" ],
									"fontsize" : 12.0
								}

							}
, 							{
								"box" : 								{
									"maxclass" : "newobj",
									"text" : "gate",
									"id" : "obj-3",
									"numinlets" : 2,
									"patching_rect" : [ 260.0, 277.0, 34.0, 20.0 ],
									"numoutlets" : 1,
									"fontname" : "Arial",
									"outlettype" : [ "" ],
									"fontsize" : 12.0
								}

							}
, 							{
								"box" : 								{
									"maxclass" : "message",
									"text" : "4",
									"id" : "obj-16",
									"numinlets" : 2,
									"patching_rect" : [ 107.0, 102.0, 32.5, 18.0 ],
									"numoutlets" : 1,
									"fontname" : "Arial",
									"outlettype" : [ "" ],
									"fontsize" : 12.0
								}

							}
, 							{
								"box" : 								{
									"maxclass" : "message",
									"text" : "3",
									"id" : "obj-15",
									"numinlets" : 2,
									"patching_rect" : [ 73.0, 102.0, 32.5, 18.0 ],
									"numoutlets" : 1,
									"fontname" : "Arial",
									"outlettype" : [ "" ],
									"fontsize" : 12.0
								}

							}
, 							{
								"box" : 								{
									"maxclass" : "message",
									"text" : "2",
									"id" : "obj-14",
									"numinlets" : 2,
									"patching_rect" : [ 39.0, 102.0, 32.5, 18.0 ],
									"numoutlets" : 1,
									"fontname" : "Arial",
									"outlettype" : [ "" ],
									"fontsize" : 12.0
								}

							}
, 							{
								"box" : 								{
									"maxclass" : "message",
									"text" : "1",
									"id" : "obj-13",
									"numinlets" : 2,
									"patching_rect" : [ 5.0, 102.0, 32.5, 18.0 ],
									"numoutlets" : 1,
									"fontname" : "Arial",
									"outlettype" : [ "" ],
									"fontsize" : 12.0
								}

							}
, 							{
								"box" : 								{
									"maxclass" : "newobj",
									"text" : "sel 3 4 5 6",
									"id" : "obj-12",
									"numinlets" : 1,
									"patching_rect" : [ 5.0, 70.0, 73.0, 20.0 ],
									"numoutlets" : 5,
									"fontname" : "Arial",
									"outlettype" : [ "bang", "bang", "bang", "bang", "" ],
									"fontsize" : 12.0
								}

							}
, 							{
								"box" : 								{
									"maxclass" : "newobj",
									"text" : "switch 4",
									"id" : "obj-11",
									"numinlets" : 5,
									"patching_rect" : [ 5.0, 171.0, 74.0, 20.0 ],
									"numoutlets" : 1,
									"fontname" : "Arial",
									"outlettype" : [ "" ],
									"fontsize" : 12.0
								}

							}
, 							{
								"box" : 								{
									"maxclass" : "outlet",
									"id" : "obj-1",
									"numinlets" : 1,
									"patching_rect" : [ 260.0, 325.0, 25.0, 25.0 ],
									"numoutlets" : 0,
									"comment" : "bangRandom"
								}

							}
, 							{
								"box" : 								{
									"maxclass" : "message",
									"text" : "0",
									"id" : "obj-117",
									"numinlets" : 2,
									"patching_rect" : [ 243.0, 74.0, 32.5, 18.0 ],
									"numoutlets" : 1,
									"fontname" : "Arial",
									"outlettype" : [ "" ],
									"fontsize" : 12.0
								}

							}
, 							{
								"box" : 								{
									"maxclass" : "newobj",
									"text" : "int 0",
									"id" : "obj-82",
									"numinlets" : 2,
									"patching_rect" : [ 275.0, 101.0, 33.0, 20.0 ],
									"numoutlets" : 1,
									"fontname" : "Arial",
									"outlettype" : [ "int" ],
									"fontsize" : 12.0
								}

							}
, 							{
								"box" : 								{
									"maxclass" : "message",
									"text" : "32",
									"id" : "obj-81",
									"numinlets" : 2,
									"patching_rect" : [ 498.0, 74.0, 32.5, 18.0 ],
									"numoutlets" : 1,
									"fontname" : "Arial",
									"outlettype" : [ "" ],
									"fontsize" : 12.0
								}

							}
, 							{
								"box" : 								{
									"maxclass" : "message",
									"text" : "24",
									"id" : "obj-79",
									"numinlets" : 2,
									"patching_rect" : [ 466.0, 74.0, 32.5, 18.0 ],
									"numoutlets" : 1,
									"fontname" : "Arial",
									"outlettype" : [ "" ],
									"fontsize" : 12.0
								}

							}
, 							{
								"box" : 								{
									"maxclass" : "message",
									"text" : "16",
									"id" : "obj-78",
									"numinlets" : 2,
									"patching_rect" : [ 434.0, 74.0, 32.5, 18.0 ],
									"numoutlets" : 1,
									"fontname" : "Arial",
									"outlettype" : [ "" ],
									"fontsize" : 12.0
								}

							}
, 							{
								"box" : 								{
									"maxclass" : "message",
									"text" : "12",
									"id" : "obj-75",
									"numinlets" : 2,
									"patching_rect" : [ 402.0, 74.0, 32.5, 18.0 ],
									"numoutlets" : 1,
									"fontname" : "Arial",
									"outlettype" : [ "" ],
									"fontsize" : 12.0
								}

							}
, 							{
								"box" : 								{
									"maxclass" : "message",
									"text" : "8",
									"id" : "obj-74",
									"numinlets" : 2,
									"patching_rect" : [ 371.0, 74.0, 32.5, 18.0 ],
									"numoutlets" : 1,
									"fontname" : "Arial",
									"outlettype" : [ "" ],
									"fontsize" : 12.0
								}

							}
, 							{
								"box" : 								{
									"maxclass" : "message",
									"text" : "6",
									"id" : "obj-73",
									"numinlets" : 2,
									"patching_rect" : [ 339.0, 74.0, 32.5, 18.0 ],
									"numoutlets" : 1,
									"fontname" : "Arial",
									"outlettype" : [ "" ],
									"fontsize" : 12.0
								}

							}
, 							{
								"box" : 								{
									"maxclass" : "message",
									"text" : "4",
									"id" : "obj-72",
									"numinlets" : 2,
									"patching_rect" : [ 307.0, 74.0, 32.5, 18.0 ],
									"numoutlets" : 1,
									"fontname" : "Arial",
									"outlettype" : [ "" ],
									"fontsize" : 12.0
								}

							}
, 							{
								"box" : 								{
									"maxclass" : "message",
									"text" : "2",
									"id" : "obj-71",
									"numinlets" : 2,
									"patching_rect" : [ 275.0, 74.0, 32.5, 18.0 ],
									"numoutlets" : 1,
									"fontname" : "Arial",
									"outlettype" : [ "" ],
									"fontsize" : 12.0
								}

							}
, 							{
								"box" : 								{
									"maxclass" : "newobj",
									"text" : "sel 0 1 2 3 4 5 6 7 8",
									"id" : "obj-69",
									"numinlets" : 1,
									"patching_rect" : [ 243.0, 50.0, 306.0, 20.0 ],
									"numoutlets" : 10,
									"fontname" : "Arial",
									"outlettype" : [ "bang", "bang", "bang", "bang", "bang", "bang", "bang", "bang", "bang", "" ],
									"fontsize" : 12.0
								}

							}
, 							{
								"box" : 								{
									"maxclass" : "newobj",
									"text" : "counter",
									"id" : "obj-52",
									"numinlets" : 5,
									"patching_rect" : [ 221.0, 201.0, 73.0, 20.0 ],
									"numoutlets" : 4,
									"fontname" : "Arial",
									"outlettype" : [ "int", "", "", "int" ],
									"fontsize" : 12.0
								}

							}
, 							{
								"box" : 								{
									"maxclass" : "newobj",
									"text" : "* 1000.",
									"id" : "obj-109",
									"numinlets" : 2,
									"patching_rect" : [ 555.641235, 50.477295, 49.0, 20.0 ],
									"numoutlets" : 1,
									"fontname" : "Arial",
									"outlettype" : [ "float" ],
									"fontsize" : 12.0
								}

							}
 ],
						"lines" : [ 							{
								"patchline" : 								{
									"source" : [ "obj-109", 0 ],
									"destination" : [ "obj-20", 0 ],
									"hidden" : 0,
									"midpoints" : [ 565.141235, 131.0, 308.5, 131.0 ]
								}

							}
, 							{
								"patchline" : 								{
									"source" : [ "obj-49", 0 ],
									"destination" : [ "obj-109", 0 ],
									"hidden" : 0,
									"midpoints" : [  ]
								}

							}
, 							{
								"patchline" : 								{
									"source" : [ "obj-3", 0 ],
									"destination" : [ "obj-22", 0 ],
									"hidden" : 0,
									"midpoints" : [  ]
								}

							}
, 							{
								"patchline" : 								{
									"source" : [ "obj-9", 0 ],
									"destination" : [ "obj-69", 0 ],
									"hidden" : 0,
									"midpoints" : [  ]
								}

							}
, 							{
								"patchline" : 								{
									"source" : [ "obj-2", 0 ],
									"destination" : [ "obj-12", 0 ],
									"hidden" : 0,
									"midpoints" : [  ]
								}

							}
, 							{
								"patchline" : 								{
									"source" : [ "obj-69", 2 ],
									"destination" : [ "obj-72", 0 ],
									"hidden" : 0,
									"midpoints" : [  ]
								}

							}
, 							{
								"patchline" : 								{
									"source" : [ "obj-69", 3 ],
									"destination" : [ "obj-73", 0 ],
									"hidden" : 0,
									"midpoints" : [  ]
								}

							}
, 							{
								"patchline" : 								{
									"source" : [ "obj-69", 4 ],
									"destination" : [ "obj-74", 0 ],
									"hidden" : 0,
									"midpoints" : [  ]
								}

							}
, 							{
								"patchline" : 								{
									"source" : [ "obj-69", 5 ],
									"destination" : [ "obj-75", 0 ],
									"hidden" : 0,
									"midpoints" : [  ]
								}

							}
, 							{
								"patchline" : 								{
									"source" : [ "obj-69", 6 ],
									"destination" : [ "obj-78", 0 ],
									"hidden" : 0,
									"midpoints" : [  ]
								}

							}
, 							{
								"patchline" : 								{
									"source" : [ "obj-69", 7 ],
									"destination" : [ "obj-79", 0 ],
									"hidden" : 0,
									"midpoints" : [  ]
								}

							}
, 							{
								"patchline" : 								{
									"source" : [ "obj-69", 8 ],
									"destination" : [ "obj-81", 0 ],
									"hidden" : 0,
									"midpoints" : [  ]
								}

							}
, 							{
								"patchline" : 								{
									"source" : [ "obj-69", 1 ],
									"destination" : [ "obj-71", 0 ],
									"hidden" : 0,
									"midpoints" : [  ]
								}

							}
, 							{
								"patchline" : 								{
									"source" : [ "obj-69", 0 ],
									"destination" : [ "obj-117", 0 ],
									"hidden" : 0,
									"midpoints" : [  ]
								}

							}
, 							{
								"patchline" : 								{
									"source" : [ "obj-13", 0 ],
									"destination" : [ "obj-11", 0 ],
									"hidden" : 0,
									"midpoints" : [  ]
								}

							}
, 							{
								"patchline" : 								{
									"source" : [ "obj-14", 0 ],
									"destination" : [ "obj-11", 0 ],
									"hidden" : 0,
									"midpoints" : [ 48.5, 124.0, 14.5, 124.0 ]
								}

							}
, 							{
								"patchline" : 								{
									"source" : [ "obj-15", 0 ],
									"destination" : [ "obj-11", 0 ],
									"hidden" : 0,
									"midpoints" : [ 82.5, 124.0, 14.5, 124.0 ]
								}

							}
, 							{
								"patchline" : 								{
									"source" : [ "obj-16", 0 ],
									"destination" : [ "obj-11", 0 ],
									"hidden" : 0,
									"midpoints" : [ 116.5, 124.0, 14.5, 124.0 ]
								}

							}
, 							{
								"patchline" : 								{
									"source" : [ "obj-11", 0 ],
									"destination" : [ "obj-52", 0 ],
									"hidden" : 0,
									"midpoints" : [ 14.5, 195.0, 230.5, 195.0 ]
								}

							}
, 							{
								"patchline" : 								{
									"source" : [ "obj-6", 3 ],
									"destination" : [ "obj-4", 0 ],
									"hidden" : 0,
									"midpoints" : [ 158.0, 246.0, 117.5, 246.0 ]
								}

							}
, 							{
								"patchline" : 								{
									"source" : [ "obj-6", 2 ],
									"destination" : [ "obj-4", 0 ],
									"hidden" : 0,
									"midpoints" : [ 144.5, 246.0, 117.5, 246.0 ]
								}

							}
, 							{
								"patchline" : 								{
									"source" : [ "obj-6", 1 ],
									"destination" : [ "obj-4", 0 ],
									"hidden" : 0,
									"midpoints" : [ 131.0, 246.0, 117.5, 246.0 ]
								}

							}
, 							{
								"patchline" : 								{
									"source" : [ "obj-6", 0 ],
									"destination" : [ "obj-4", 0 ],
									"hidden" : 0,
									"midpoints" : [  ]
								}

							}
, 							{
								"patchline" : 								{
									"source" : [ "obj-6", 4 ],
									"destination" : [ "obj-5", 0 ],
									"hidden" : 0,
									"midpoints" : [  ]
								}

							}
, 							{
								"patchline" : 								{
									"source" : [ "obj-5", 0 ],
									"destination" : [ "obj-3", 0 ],
									"hidden" : 0,
									"midpoints" : [ 171.5, 272.0, 269.5, 272.0 ]
								}

							}
, 							{
								"patchline" : 								{
									"source" : [ "obj-4", 0 ],
									"destination" : [ "obj-3", 0 ],
									"hidden" : 0,
									"midpoints" : [ 117.5, 272.0, 269.5, 272.0 ]
								}

							}
, 							{
								"patchline" : 								{
									"source" : [ "obj-52", 3 ],
									"destination" : [ "obj-3", 1 ],
									"hidden" : 0,
									"midpoints" : [  ]
								}

							}
, 							{
								"patchline" : 								{
									"source" : [ "obj-12", 3 ],
									"destination" : [ "obj-16", 0 ],
									"hidden" : 0,
									"midpoints" : [ 55.0, 97.0, 116.5, 97.0 ]
								}

							}
, 							{
								"patchline" : 								{
									"source" : [ "obj-12", 2 ],
									"destination" : [ "obj-15", 0 ],
									"hidden" : 0,
									"midpoints" : [ 41.5, 97.0, 82.5, 97.0 ]
								}

							}
, 							{
								"patchline" : 								{
									"source" : [ "obj-12", 1 ],
									"destination" : [ "obj-14", 0 ],
									"hidden" : 0,
									"midpoints" : [ 28.0, 98.0, 48.5, 98.0 ]
								}

							}
, 							{
								"patchline" : 								{
									"source" : [ "obj-12", 0 ],
									"destination" : [ "obj-13", 0 ],
									"hidden" : 0,
									"midpoints" : [  ]
								}

							}
, 							{
								"patchline" : 								{
									"source" : [ "obj-2", 0 ],
									"destination" : [ "obj-7", 0 ],
									"hidden" : 0,
									"midpoints" : [  ]
								}

							}
, 							{
								"patchline" : 								{
									"source" : [ "obj-7", 0 ],
									"destination" : [ "obj-6", 0 ],
									"hidden" : 0,
									"midpoints" : [  ]
								}

							}
, 							{
								"patchline" : 								{
									"source" : [ "obj-22", 0 ],
									"destination" : [ "obj-1", 0 ],
									"hidden" : 0,
									"midpoints" : [  ]
								}

							}
, 							{
								"patchline" : 								{
									"source" : [ "obj-117", 0 ],
									"destination" : [ "obj-82", 0 ],
									"hidden" : 0,
									"midpoints" : [ 252.5, 96.0, 284.5, 96.0 ]
								}

							}
, 							{
								"patchline" : 								{
									"source" : [ "obj-82", 0 ],
									"destination" : [ "obj-52", 4 ],
									"hidden" : 0,
									"midpoints" : [  ]
								}

							}
, 							{
								"patchline" : 								{
									"source" : [ "obj-81", 0 ],
									"destination" : [ "obj-82", 0 ],
									"hidden" : 0,
									"midpoints" : [ 507.5, 96.5, 284.5, 96.5 ]
								}

							}
, 							{
								"patchline" : 								{
									"source" : [ "obj-79", 0 ],
									"destination" : [ "obj-82", 0 ],
									"hidden" : 0,
									"midpoints" : [ 475.5, 96.5, 284.5, 96.5 ]
								}

							}
, 							{
								"patchline" : 								{
									"source" : [ "obj-78", 0 ],
									"destination" : [ "obj-82", 0 ],
									"hidden" : 0,
									"midpoints" : [ 443.5, 96.5, 284.5, 96.5 ]
								}

							}
, 							{
								"patchline" : 								{
									"source" : [ "obj-75", 0 ],
									"destination" : [ "obj-82", 0 ],
									"hidden" : 0,
									"midpoints" : [ 411.5, 96.5, 284.5, 96.5 ]
								}

							}
, 							{
								"patchline" : 								{
									"source" : [ "obj-74", 0 ],
									"destination" : [ "obj-82", 0 ],
									"hidden" : 0,
									"midpoints" : [ 380.5, 96.5, 284.5, 96.5 ]
								}

							}
, 							{
								"patchline" : 								{
									"source" : [ "obj-73", 0 ],
									"destination" : [ "obj-82", 0 ],
									"hidden" : 0,
									"midpoints" : [ 348.5, 96.5, 284.5, 96.5 ]
								}

							}
, 							{
								"patchline" : 								{
									"source" : [ "obj-72", 0 ],
									"destination" : [ "obj-82", 0 ],
									"hidden" : 0,
									"midpoints" : [ 316.5, 96.5, 284.5, 96.5 ]
								}

							}
, 							{
								"patchline" : 								{
									"source" : [ "obj-71", 0 ],
									"destination" : [ "obj-82", 0 ],
									"hidden" : 0,
									"midpoints" : [  ]
								}

							}
, 							{
								"patchline" : 								{
									"source" : [ "obj-27", 3 ],
									"destination" : [ "obj-11", 4 ],
									"hidden" : 0,
									"midpoints" : [  ]
								}

							}
, 							{
								"patchline" : 								{
									"source" : [ "obj-27", 2 ],
									"destination" : [ "obj-11", 3 ],
									"hidden" : 0,
									"midpoints" : [  ]
								}

							}
, 							{
								"patchline" : 								{
									"source" : [ "obj-27", 1 ],
									"destination" : [ "obj-11", 2 ],
									"hidden" : 0,
									"midpoints" : [  ]
								}

							}
, 							{
								"patchline" : 								{
									"source" : [ "obj-27", 0 ],
									"destination" : [ "obj-11", 1 ],
									"hidden" : 0,
									"midpoints" : [  ]
								}

							}
 ]
					}
,
					"saved_object_attributes" : 					{
						"globalpatchername" : "",
						"default_fontface" : 0,
						"fontname" : "Arial",
						"default_fontname" : "Arial",
						"default_fontsize" : 12.0,
						"fontface" : 0,
						"fontsize" : 12.0
					}

				}

			}
, 			{
				"box" : 				{
					"maxclass" : "newobj",
					"text" : "p timingX1X2",
					"id" : "obj-3",
					"numinlets" : 3,
					"color" : [ 0.929412, 0.360784, 0.866667, 1.0 ],
					"patching_rect" : [ 304.446747, 92.254608, 82.0, 20.0 ],
					"numoutlets" : 2,
					"fontname" : "Arial",
					"outlettype" : [ "bang", "int" ],
					"fontsize" : 12.0,
					"patcher" : 					{
						"fileversion" : 1,
						"rect" : [ 630.0, 371.0, 328.0, 328.0 ],
						"bglocked" : 0,
						"defrect" : [ 630.0, 371.0, 328.0, 328.0 ],
						"openrect" : [ 0.0, 0.0, 0.0, 0.0 ],
						"openinpresentation" : 0,
						"default_fontsize" : 12.0,
						"default_fontface" : 0,
						"default_fontname" : "Arial",
						"gridonopen" : 0,
						"gridsize" : [ 15.0, 15.0 ],
						"gridsnaponopen" : 0,
						"toolbarvisible" : 1,
						"boxanimatetime" : 200,
						"imprint" : 0,
						"enablehscroll" : 1,
						"enablevscroll" : 1,
						"devicewidth" : 0.0,
						"boxes" : [ 							{
								"box" : 								{
									"maxclass" : "newobj",
									"text" : "b",
									"id" : "obj-10",
									"numinlets" : 1,
									"patching_rect" : [ 26.0, 233.0, 32.5, 20.0 ],
									"numoutlets" : 2,
									"fontname" : "Arial",
									"outlettype" : [ "bang", "bang" ],
									"fontsize" : 11.595187
								}

							}
, 							{
								"box" : 								{
									"maxclass" : "outlet",
									"id" : "obj-4",
									"numinlets" : 1,
									"patching_rect" : [ 117.5, 292.5, 25.0, 25.0 ],
									"numoutlets" : 0,
									"comment" : "Release"
								}

							}
, 							{
								"box" : 								{
									"maxclass" : "newobj",
									"text" : "/ 2",
									"id" : "obj-7",
									"numinlets" : 2,
									"patching_rect" : [ 117.5, 264.0, 32.5, 18.0 ],
									"numoutlets" : 1,
									"fontname" : "Arial",
									"outlettype" : [ "int" ],
									"fontsize" : 10.0
								}

							}
, 							{
								"box" : 								{
									"maxclass" : "inlet",
									"id" : "obj-2",
									"numinlets" : 0,
									"patching_rect" : [ 291.0, 4.0, 25.0, 25.0 ],
									"numoutlets" : 1,
									"outlettype" : [ "" ],
									"comment" : ""
								}

							}
, 							{
								"box" : 								{
									"maxclass" : "inlet",
									"id" : "obj-1",
									"numinlets" : 0,
									"patching_rect" : [ 262.0, 4.0, 25.0, 25.0 ],
									"numoutlets" : 1,
									"outlettype" : [ "" ],
									"comment" : ""
								}

							}
, 							{
								"box" : 								{
									"maxclass" : "newobj",
									"text" : "int 0",
									"id" : "obj-133",
									"numinlets" : 2,
									"patching_rect" : [ 95.5, 177.0, 33.0, 20.0 ],
									"numoutlets" : 1,
									"fontname" : "Arial",
									"outlettype" : [ "int" ],
									"fontsize" : 12.0
								}

							}
, 							{
								"box" : 								{
									"maxclass" : "newobj",
									"text" : "* 1000.",
									"id" : "obj-121",
									"numinlets" : 2,
									"patching_rect" : [ 261.5, 123.0, 42.0, 18.0 ],
									"numoutlets" : 1,
									"fontname" : "Arial",
									"outlettype" : [ "float" ],
									"fontsize" : 10.0
								}

							}
, 							{
								"box" : 								{
									"maxclass" : "newobj",
									"text" : "+ 3000.",
									"id" : "obj-119",
									"numinlets" : 2,
									"patching_rect" : [ 154.5, 152.0, 44.0, 18.0 ],
									"numoutlets" : 1,
									"fontname" : "Arial",
									"outlettype" : [ "float" ],
									"fontsize" : 10.0
								}

							}
, 							{
								"box" : 								{
									"maxclass" : "newobj",
									"text" : "* 1000.",
									"id" : "obj-113",
									"numinlets" : 2,
									"patching_rect" : [ 197.5, 102.0, 42.0, 18.0 ],
									"numoutlets" : 1,
									"fontname" : "Arial",
									"outlettype" : [ "float" ],
									"fontsize" : 10.0
								}

							}
, 							{
								"box" : 								{
									"maxclass" : "newobj",
									"text" : "b",
									"id" : "obj-109",
									"numinlets" : 1,
									"patching_rect" : [ 170.5, 35.0, 32.5, 18.0 ],
									"numoutlets" : 2,
									"fontname" : "Arial",
									"outlettype" : [ "bang", "bang" ],
									"fontsize" : 10.0
								}

							}
, 							{
								"box" : 								{
									"maxclass" : "newobj",
									"text" : "abs",
									"id" : "obj-107",
									"numinlets" : 1,
									"patching_rect" : [ 197.5, 80.0, 27.0, 18.0 ],
									"numoutlets" : 1,
									"fontname" : "Arial",
									"outlettype" : [ "int" ],
									"fontsize" : 10.0
								}

							}
, 							{
								"box" : 								{
									"maxclass" : "newobj",
									"text" : "-",
									"id" : "obj-106",
									"numinlets" : 2,
									"patching_rect" : [ 197.5, 58.0, 32.5, 18.0 ],
									"numoutlets" : 1,
									"fontname" : "Arial",
									"outlettype" : [ "int" ],
									"fontsize" : 10.0
								}

							}
, 							{
								"box" : 								{
									"maxclass" : "newobj",
									"text" : "random",
									"id" : "obj-102",
									"numinlets" : 2,
									"patching_rect" : [ 154.5, 124.0, 62.0, 20.0 ],
									"numoutlets" : 1,
									"fontname" : "Arial",
									"outlettype" : [ "int" ],
									"fontsize" : 12.0
								}

							}
, 							{
								"box" : 								{
									"maxclass" : "inlet",
									"id" : "obj-3",
									"numinlets" : 0,
									"patching_rect" : [ 26.0, 98.0, 25.0, 25.0 ],
									"numoutlets" : 1,
									"outlettype" : [ "int" ],
									"comment" : ""
								}

							}
, 							{
								"box" : 								{
									"maxclass" : "message",
									"text" : "0",
									"id" : "obj-100",
									"numinlets" : 2,
									"patching_rect" : [ 59.5, 155.0, 32.5, 18.0 ],
									"numoutlets" : 1,
									"fontname" : "Arial",
									"outlettype" : [ "" ],
									"fontsize" : 12.0
								}

							}
, 							{
								"box" : 								{
									"maxclass" : "message",
									"text" : "1",
									"id" : "obj-99",
									"numinlets" : 2,
									"patching_rect" : [ 25.5, 155.0, 32.5, 18.0 ],
									"numoutlets" : 1,
									"fontname" : "Arial",
									"outlettype" : [ "" ],
									"fontsize" : 12.0
								}

							}
, 							{
								"box" : 								{
									"maxclass" : "newobj",
									"text" : "sel 2",
									"id" : "obj-98",
									"numinlets" : 2,
									"patching_rect" : [ 25.5, 127.0, 36.0, 20.0 ],
									"numoutlets" : 2,
									"fontname" : "Arial",
									"outlettype" : [ "bang", "" ],
									"fontsize" : 12.0
								}

							}
, 							{
								"box" : 								{
									"maxclass" : "toggle",
									"id" : "obj-97",
									"numinlets" : 1,
									"patching_rect" : [ 25.5, 182.0, 20.0, 20.0 ],
									"numoutlets" : 1,
									"outlettype" : [ "int" ]
								}

							}
, 							{
								"box" : 								{
									"maxclass" : "newobj",
									"text" : "metro 4000",
									"id" : "obj-93",
									"numinlets" : 2,
									"patching_rect" : [ 25.5, 206.0, 89.0, 20.0 ],
									"numoutlets" : 1,
									"fontname" : "Arial",
									"outlettype" : [ "bang" ],
									"fontsize" : 12.0
								}

							}
, 							{
								"box" : 								{
									"maxclass" : "outlet",
									"id" : "obj-147",
									"numinlets" : 1,
									"patching_rect" : [ 25.5, 292.5, 25.0, 25.0 ],
									"numoutlets" : 0,
									"comment" : "bangRandom"
								}

							}
 ],
						"lines" : [ 							{
								"patchline" : 								{
									"source" : [ "obj-93", 0 ],
									"destination" : [ "obj-10", 0 ],
									"hidden" : 0,
									"midpoints" : [  ]
								}

							}
, 							{
								"patchline" : 								{
									"source" : [ "obj-2", 0 ],
									"destination" : [ "obj-106", 0 ],
									"hidden" : 0,
									"midpoints" : [ 300.5, 55.0, 207.0, 55.0 ]
								}

							}
, 							{
								"patchline" : 								{
									"source" : [ "obj-1", 0 ],
									"destination" : [ "obj-109", 0 ],
									"hidden" : 0,
									"midpoints" : [ 271.5, 32.0, 180.0, 32.0 ]
								}

							}
, 							{
								"patchline" : 								{
									"source" : [ "obj-1", 0 ],
									"destination" : [ "obj-106", 1 ],
									"hidden" : 0,
									"midpoints" : [ 271.5, 32.0, 220.5, 32.0 ]
								}

							}
, 							{
								"patchline" : 								{
									"source" : [ "obj-106", 0 ],
									"destination" : [ "obj-107", 0 ],
									"hidden" : 0,
									"midpoints" : [  ]
								}

							}
, 							{
								"patchline" : 								{
									"source" : [ "obj-109", 0 ],
									"destination" : [ "obj-106", 0 ],
									"hidden" : 0,
									"midpoints" : [ 180.0, 55.0, 207.0, 55.0 ]
								}

							}
, 							{
								"patchline" : 								{
									"source" : [ "obj-100", 0 ],
									"destination" : [ "obj-97", 0 ],
									"hidden" : 0,
									"midpoints" : [ 69.0, 176.0, 35.0, 176.0 ]
								}

							}
, 							{
								"patchline" : 								{
									"source" : [ "obj-99", 0 ],
									"destination" : [ "obj-97", 0 ],
									"hidden" : 0,
									"midpoints" : [ 35.0, 176.0, 35.0, 176.0 ]
								}

							}
, 							{
								"patchline" : 								{
									"source" : [ "obj-98", 0 ],
									"destination" : [ "obj-99", 0 ],
									"hidden" : 0,
									"midpoints" : [  ]
								}

							}
, 							{
								"patchline" : 								{
									"source" : [ "obj-98", 1 ],
									"destination" : [ "obj-100", 0 ],
									"hidden" : 0,
									"midpoints" : [ 52.0, 151.0, 69.0, 151.0 ]
								}

							}
, 							{
								"patchline" : 								{
									"source" : [ "obj-3", 0 ],
									"destination" : [ "obj-98", 0 ],
									"hidden" : 0,
									"midpoints" : [  ]
								}

							}
, 							{
								"patchline" : 								{
									"source" : [ "obj-97", 0 ],
									"destination" : [ "obj-93", 0 ],
									"hidden" : 0,
									"midpoints" : [  ]
								}

							}
, 							{
								"patchline" : 								{
									"source" : [ "obj-93", 0 ],
									"destination" : [ "obj-102", 0 ],
									"hidden" : 0,
									"midpoints" : [ 35.0, 230.0, 16.0, 230.0, 16.0, 85.0, 164.0, 85.0 ]
								}

							}
, 							{
								"patchline" : 								{
									"source" : [ "obj-7", 0 ],
									"destination" : [ "obj-4", 0 ],
									"hidden" : 0,
									"midpoints" : [  ]
								}

							}
, 							{
								"patchline" : 								{
									"source" : [ "obj-10", 0 ],
									"destination" : [ "obj-147", 0 ],
									"hidden" : 0,
									"midpoints" : [  ]
								}

							}
, 							{
								"patchline" : 								{
									"source" : [ "obj-133", 0 ],
									"destination" : [ "obj-93", 1 ],
									"hidden" : 0,
									"midpoints" : [  ]
								}

							}
, 							{
								"patchline" : 								{
									"source" : [ "obj-133", 0 ],
									"destination" : [ "obj-7", 0 ],
									"hidden" : 0,
									"midpoints" : [ 105.0, 201.0, 127.0, 201.0 ]
								}

							}
, 							{
								"patchline" : 								{
									"source" : [ "obj-107", 0 ],
									"destination" : [ "obj-113", 0 ],
									"hidden" : 0,
									"midpoints" : [  ]
								}

							}
, 							{
								"patchline" : 								{
									"source" : [ "obj-113", 0 ],
									"destination" : [ "obj-102", 1 ],
									"hidden" : 0,
									"midpoints" : [ 207.0, 120.0, 207.0, 120.0 ]
								}

							}
, 							{
								"patchline" : 								{
									"source" : [ "obj-119", 0 ],
									"destination" : [ "obj-133", 0 ],
									"hidden" : 0,
									"midpoints" : [ 164.0, 173.0, 105.0, 173.0 ]
								}

							}
, 							{
								"patchline" : 								{
									"source" : [ "obj-102", 0 ],
									"destination" : [ "obj-119", 0 ],
									"hidden" : 0,
									"midpoints" : [  ]
								}

							}
, 							{
								"patchline" : 								{
									"source" : [ "obj-121", 0 ],
									"destination" : [ "obj-119", 1 ],
									"hidden" : 0,
									"midpoints" : [ 271.0, 147.0, 189.0, 147.0 ]
								}

							}
, 							{
								"patchline" : 								{
									"source" : [ "obj-1", 0 ],
									"destination" : [ "obj-121", 0 ],
									"hidden" : 0,
									"midpoints" : [  ]
								}

							}
 ]
					}
,
					"saved_object_attributes" : 					{
						"globalpatchername" : "",
						"default_fontface" : 0,
						"fontname" : "Arial",
						"default_fontname" : "Arial",
						"default_fontsize" : 12.0,
						"fontface" : 0,
						"fontsize" : 12.0
					}

				}

			}
, 			{
				"box" : 				{
					"maxclass" : "newobj",
					"text" : "int 0",
					"id" : "obj-4",
					"numinlets" : 2,
					"patching_rect" : [ 175.754059, 62.254639, 33.0, 20.0 ],
					"numoutlets" : 1,
					"fontname" : "Arial",
					"outlettype" : [ "int" ],
					"fontsize" : 12.0
				}

			}
, 			{
				"box" : 				{
					"maxclass" : "newobj",
					"text" : "p timingX",
					"id" : "obj-5",
					"numinlets" : 2,
					"color" : [ 0.929412, 0.360784, 0.866667, 1.0 ],
					"patching_rect" : [ 239.187775, 91.967896, 61.0, 20.0 ],
					"numoutlets" : 2,
					"fontname" : "Arial",
					"outlettype" : [ "bang", "int" ],
					"fontsize" : 12.0,
					"patcher" : 					{
						"fileversion" : 1,
						"rect" : [ 976.0, 389.0, 225.0, 243.0 ],
						"bglocked" : 0,
						"defrect" : [ 976.0, 389.0, 225.0, 243.0 ],
						"openrect" : [ 0.0, 0.0, 0.0, 0.0 ],
						"openinpresentation" : 0,
						"default_fontsize" : 12.0,
						"default_fontface" : 0,
						"default_fontname" : "Arial",
						"gridonopen" : 0,
						"gridsize" : [ 15.0, 15.0 ],
						"gridsnaponopen" : 0,
						"toolbarvisible" : 1,
						"boxanimatetime" : 200,
						"imprint" : 0,
						"enablehscroll" : 1,
						"enablevscroll" : 1,
						"devicewidth" : 0.0,
						"boxes" : [ 							{
								"box" : 								{
									"maxclass" : "newobj",
									"text" : "b",
									"id" : "obj-10",
									"numinlets" : 1,
									"patching_rect" : [ 24.5, 143.0, 32.5, 20.0 ],
									"numoutlets" : 2,
									"fontname" : "Arial",
									"outlettype" : [ "bang", "bang" ],
									"fontsize" : 12.0
								}

							}
, 							{
								"box" : 								{
									"maxclass" : "outlet",
									"id" : "obj-8",
									"numinlets" : 1,
									"patching_rect" : [ 125.5, 199.5, 25.0, 25.0 ],
									"numoutlets" : 0,
									"comment" : "Release"
								}

							}
, 							{
								"box" : 								{
									"maxclass" : "newobj",
									"text" : "/ 2",
									"id" : "obj-7",
									"numinlets" : 2,
									"patching_rect" : [ 125.5, 175.0, 32.5, 18.0 ],
									"numoutlets" : 1,
									"fontname" : "Arial",
									"outlettype" : [ "int" ],
									"fontsize" : 10.0
								}

							}
, 							{
								"box" : 								{
									"maxclass" : "inlet",
									"id" : "obj-4",
									"numinlets" : 0,
									"patching_rect" : [ 95.0, 10.0, 25.0, 25.0 ],
									"numoutlets" : 1,
									"outlettype" : [ "" ],
									"comment" : ""
								}

							}
, 							{
								"box" : 								{
									"maxclass" : "inlet",
									"id" : "obj-3",
									"numinlets" : 0,
									"patching_rect" : [ 25.0, 11.0, 25.0, 25.0 ],
									"numoutlets" : 1,
									"outlettype" : [ "int" ],
									"comment" : ""
								}

							}
, 							{
								"box" : 								{
									"maxclass" : "newobj",
									"text" : "pipe 2000",
									"id" : "obj-2",
									"numinlets" : 2,
									"patching_rect" : [ 140.5, 104.0, 54.0, 18.0 ],
									"numoutlets" : 1,
									"fontname" : "Arial",
									"outlettype" : [ "" ],
									"fontsize" : 10.0
								}

							}
, 							{
								"box" : 								{
									"maxclass" : "newobj",
									"text" : "loadmess 4000",
									"id" : "obj-1",
									"numinlets" : 1,
									"patching_rect" : [ 140.5, 82.0, 78.0, 18.0 ],
									"numoutlets" : 1,
									"fontname" : "Arial",
									"outlettype" : [ "" ],
									"fontsize" : 10.0
								}

							}
, 							{
								"box" : 								{
									"maxclass" : "message",
									"text" : "0",
									"id" : "obj-100",
									"numinlets" : 2,
									"patching_rect" : [ 58.5, 69.0, 32.5, 18.0 ],
									"numoutlets" : 1,
									"fontname" : "Arial",
									"outlettype" : [ "" ],
									"fontsize" : 12.0
								}

							}
, 							{
								"box" : 								{
									"maxclass" : "message",
									"text" : "1",
									"id" : "obj-99",
									"numinlets" : 2,
									"patching_rect" : [ 24.5, 69.0, 32.5, 18.0 ],
									"numoutlets" : 1,
									"fontname" : "Arial",
									"outlettype" : [ "" ],
									"fontsize" : 12.0
								}

							}
, 							{
								"box" : 								{
									"maxclass" : "newobj",
									"text" : "sel 1",
									"id" : "obj-98",
									"numinlets" : 2,
									"patching_rect" : [ 24.5, 41.0, 36.0, 20.0 ],
									"numoutlets" : 2,
									"fontname" : "Arial",
									"outlettype" : [ "bang", "" ],
									"fontsize" : 12.0
								}

							}
, 							{
								"box" : 								{
									"maxclass" : "toggle",
									"id" : "obj-97",
									"numinlets" : 1,
									"patching_rect" : [ 24.5, 96.0, 20.0, 20.0 ],
									"numoutlets" : 1,
									"outlettype" : [ "int" ]
								}

							}
, 							{
								"box" : 								{
									"maxclass" : "newobj",
									"text" : "metro 4000",
									"id" : "obj-93",
									"numinlets" : 2,
									"patching_rect" : [ 24.5, 120.0, 89.0, 20.0 ],
									"numoutlets" : 1,
									"fontname" : "Arial",
									"outlettype" : [ "bang" ],
									"fontsize" : 12.0
								}

							}
, 							{
								"box" : 								{
									"maxclass" : "newobj",
									"text" : "* 1000.",
									"id" : "obj-90",
									"numinlets" : 2,
									"patching_rect" : [ 94.5, 90.0, 42.0, 18.0 ],
									"numoutlets" : 1,
									"fontname" : "Arial",
									"outlettype" : [ "float" ],
									"fontsize" : 10.0
								}

							}
, 							{
								"box" : 								{
									"maxclass" : "outlet",
									"id" : "obj-147",
									"numinlets" : 1,
									"patching_rect" : [ 24.5, 199.5, 25.0, 25.0 ],
									"numoutlets" : 0,
									"comment" : "bangRandom"
								}

							}
 ],
						"lines" : [ 							{
								"patchline" : 								{
									"source" : [ "obj-93", 0 ],
									"destination" : [ "obj-10", 0 ],
									"hidden" : 0,
									"midpoints" : [  ]
								}

							}
, 							{
								"patchline" : 								{
									"source" : [ "obj-2", 0 ],
									"destination" : [ "obj-7", 0 ],
									"hidden" : 0,
									"midpoints" : [ 150.0, 138.0, 135.0, 138.0 ]
								}

							}
, 							{
								"patchline" : 								{
									"source" : [ "obj-99", 0 ],
									"destination" : [ "obj-97", 0 ],
									"hidden" : 0,
									"midpoints" : [ 34.0, 90.0, 34.0, 90.0 ]
								}

							}
, 							{
								"patchline" : 								{
									"source" : [ "obj-100", 0 ],
									"destination" : [ "obj-97", 0 ],
									"hidden" : 0,
									"midpoints" : [ 68.0, 90.0, 34.0, 90.0 ]
								}

							}
, 							{
								"patchline" : 								{
									"source" : [ "obj-98", 0 ],
									"destination" : [ "obj-99", 0 ],
									"hidden" : 0,
									"midpoints" : [  ]
								}

							}
, 							{
								"patchline" : 								{
									"source" : [ "obj-98", 1 ],
									"destination" : [ "obj-100", 0 ],
									"hidden" : 0,
									"midpoints" : [ 51.0, 65.0, 68.0, 65.0 ]
								}

							}
, 							{
								"patchline" : 								{
									"source" : [ "obj-3", 0 ],
									"destination" : [ "obj-98", 0 ],
									"hidden" : 0,
									"midpoints" : [  ]
								}

							}
, 							{
								"patchline" : 								{
									"source" : [ "obj-97", 0 ],
									"destination" : [ "obj-93", 0 ],
									"hidden" : 0,
									"midpoints" : [  ]
								}

							}
, 							{
								"patchline" : 								{
									"source" : [ "obj-1", 0 ],
									"destination" : [ "obj-2", 0 ],
									"hidden" : 0,
									"midpoints" : [  ]
								}

							}
, 							{
								"patchline" : 								{
									"source" : [ "obj-10", 0 ],
									"destination" : [ "obj-147", 0 ],
									"hidden" : 0,
									"midpoints" : [  ]
								}

							}
, 							{
								"patchline" : 								{
									"source" : [ "obj-7", 0 ],
									"destination" : [ "obj-8", 0 ],
									"hidden" : 0,
									"midpoints" : [  ]
								}

							}
, 							{
								"patchline" : 								{
									"source" : [ "obj-90", 0 ],
									"destination" : [ "obj-93", 1 ],
									"hidden" : 0,
									"midpoints" : [  ]
								}

							}
, 							{
								"patchline" : 								{
									"source" : [ "obj-4", 0 ],
									"destination" : [ "obj-90", 0 ],
									"hidden" : 0,
									"midpoints" : [  ]
								}

							}
, 							{
								"patchline" : 								{
									"source" : [ "obj-90", 0 ],
									"destination" : [ "obj-7", 0 ],
									"hidden" : 0,
									"midpoints" : [ 104.0, 114.0, 135.0, 114.0 ]
								}

							}
 ]
					}
,
					"saved_object_attributes" : 					{
						"globalpatchername" : "",
						"default_fontface" : 0,
						"fontname" : "Arial",
						"default_fontname" : "Arial",
						"default_fontsize" : 12.0,
						"fontface" : 0,
						"fontsize" : 12.0
					}

				}

			}
, 			{
				"box" : 				{
					"maxclass" : "newobj",
					"text" : "pipe 200",
					"id" : "obj-112",
					"numinlets" : 2,
					"patching_rect" : [ 175.685394, 35.518219, 57.0, 20.0 ],
					"numoutlets" : 1,
					"fontname" : "Arial",
					"outlettype" : [ "" ],
					"fontsize" : 12.0
				}

			}
, 			{
				"box" : 				{
					"maxclass" : "newobj",
					"text" : "sel 0",
					"id" : "obj-6",
					"numinlets" : 2,
					"patching_rect" : [ 15.182739, 101.755219, 54.398666, 20.0 ],
					"numoutlets" : 2,
					"fontname" : "Arial",
					"outlettype" : [ "bang", "" ],
					"fontsize" : 12.0
				}

			}
, 			{
				"box" : 				{
					"maxclass" : "message",
					"text" : "1",
					"id" : "obj-9",
					"numinlets" : 2,
					"patching_rect" : [ 50.02652, 125.140533, 32.5, 18.0 ],
					"numoutlets" : 1,
					"fontname" : "Arial",
					"outlettype" : [ "" ],
					"fontsize" : 12.0
				}

			}
, 			{
				"box" : 				{
					"maxclass" : "message",
					"text" : "0",
					"id" : "obj-89",
					"numinlets" : 2,
					"patching_rect" : [ 15.62793, 125.450623, 32.5, 18.0 ],
					"numoutlets" : 1,
					"fontname" : "Arial",
					"outlettype" : [ "" ],
					"fontsize" : 12.0
				}

			}
, 			{
				"box" : 				{
					"maxclass" : "newobj",
					"text" : "switch 9",
					"id" : "obj-85",
					"numinlets" : 10,
					"patching_rect" : [ 175.685394, 128.865936, 140.5, 20.0 ],
					"numoutlets" : 1,
					"fontname" : "Arial",
					"outlettype" : [ "" ],
					"fontsize" : 12.0
				}

			}
, 			{
				"box" : 				{
					"maxclass" : "gswitch",
					"id" : "obj-17",
					"numinlets" : 3,
					"patching_rect" : [ 69.130707, 157.559204, 41.0, 32.0 ],
					"numoutlets" : 1,
					"outlettype" : [ "" ]
				}

			}
 ],
		"lines" : [ 			{
				"patchline" : 				{
					"source" : [ "obj-13", 0 ],
					"destination" : [ "obj-17", 2 ],
					"hidden" : 0,
					"midpoints" : [  ]
				}

			}
, 			{
				"patchline" : 				{
					"source" : [ "obj-3", 1 ],
					"destination" : [ "obj-7", 2 ],
					"hidden" : 0,
					"midpoints" : [ 376.946747, 184.0, 262.185394, 184.0 ]
				}

			}
, 			{
				"patchline" : 				{
					"source" : [ "obj-5", 1 ],
					"destination" : [ "obj-7", 1 ],
					"hidden" : 0,
					"midpoints" : [ 290.687775, 175.0, 248.685394, 175.0 ]
				}

			}
, 			{
				"patchline" : 				{
					"source" : [ "obj-11", 0 ],
					"destination" : [ "obj-105", 1 ],
					"hidden" : 0,
					"midpoints" : [  ]
				}

			}
, 			{
				"patchline" : 				{
					"source" : [ "obj-36", 0 ],
					"destination" : [ "obj-105", 0 ],
					"hidden" : 0,
					"midpoints" : [ 24.5, 30.0, 493.5, 30.0 ]
				}

			}
, 			{
				"patchline" : 				{
					"source" : [ "obj-10", 0 ],
					"destination" : [ "obj-151", 2 ],
					"hidden" : 0,
					"midpoints" : [  ]
				}

			}
, 			{
				"patchline" : 				{
					"source" : [ "obj-5", 0 ],
					"destination" : [ "obj-85", 1 ],
					"hidden" : 0,
					"midpoints" : [ 248.687775, 117.0, 198.685394, 117.0 ]
				}

			}
, 			{
				"patchline" : 				{
					"source" : [ "obj-3", 0 ],
					"destination" : [ "obj-85", 2 ],
					"hidden" : 0,
					"midpoints" : [ 313.946747, 117.591339, 212.185394, 117.591339 ]
				}

			}
, 			{
				"patchline" : 				{
					"source" : [ "obj-85", 0 ],
					"destination" : [ "obj-17", 2 ],
					"hidden" : 0,
					"midpoints" : [ 185.185394, 153.0, 100.630707, 153.0 ]
				}

			}
, 			{
				"patchline" : 				{
					"source" : [ "obj-151", 0 ],
					"destination" : [ "obj-85", 3 ],
					"hidden" : 0,
					"midpoints" : [ 399.079071, 121.0, 225.685394, 121.0 ]
				}

			}
, 			{
				"patchline" : 				{
					"source" : [ "obj-151", 0 ],
					"destination" : [ "obj-85", 4 ],
					"hidden" : 0,
					"midpoints" : [ 399.079071, 121.0, 239.185394, 121.0 ]
				}

			}
, 			{
				"patchline" : 				{
					"source" : [ "obj-151", 0 ],
					"destination" : [ "obj-85", 5 ],
					"hidden" : 0,
					"midpoints" : [ 399.079071, 121.0, 252.685394, 121.0 ]
				}

			}
, 			{
				"patchline" : 				{
					"source" : [ "obj-151", 0 ],
					"destination" : [ "obj-85", 6 ],
					"hidden" : 0,
					"midpoints" : [ 399.079071, 121.0, 266.185394, 121.0 ]
				}

			}
, 			{
				"patchline" : 				{
					"source" : [ "obj-42", 0 ],
					"destination" : [ "obj-151", 1 ],
					"hidden" : 0,
					"midpoints" : [  ]
				}

			}
, 			{
				"patchline" : 				{
					"source" : [ "obj-41", 0 ],
					"destination" : [ "obj-3", 2 ],
					"hidden" : 0,
					"midpoints" : [  ]
				}

			}
, 			{
				"patchline" : 				{
					"source" : [ "obj-40", 0 ],
					"destination" : [ "obj-3", 1 ],
					"hidden" : 0,
					"midpoints" : [  ]
				}

			}
, 			{
				"patchline" : 				{
					"source" : [ "obj-39", 0 ],
					"destination" : [ "obj-5", 1 ],
					"hidden" : 0,
					"midpoints" : [  ]
				}

			}
, 			{
				"patchline" : 				{
					"source" : [ "obj-9", 0 ],
					"destination" : [ "obj-17", 0 ],
					"hidden" : 0,
					"midpoints" : [ 59.52652, 146.045319, 78.630707, 146.045319 ]
				}

			}
, 			{
				"patchline" : 				{
					"source" : [ "obj-89", 0 ],
					"destination" : [ "obj-17", 0 ],
					"hidden" : 0,
					"midpoints" : [ 25.12793, 146.045319, 78.630707, 146.045319 ]
				}

			}
, 			{
				"patchline" : 				{
					"source" : [ "obj-6", 0 ],
					"destination" : [ "obj-89", 0 ],
					"hidden" : 0,
					"midpoints" : [  ]
				}

			}
, 			{
				"patchline" : 				{
					"source" : [ "obj-6", 1 ],
					"destination" : [ "obj-9", 0 ],
					"hidden" : 0,
					"midpoints" : [  ]
				}

			}
, 			{
				"patchline" : 				{
					"source" : [ "obj-36", 0 ],
					"destination" : [ "obj-6", 0 ],
					"hidden" : 0,
					"midpoints" : [  ]
				}

			}
, 			{
				"patchline" : 				{
					"source" : [ "obj-36", 0 ],
					"destination" : [ "obj-112", 0 ],
					"hidden" : 0,
					"midpoints" : [ 24.5, 30.0, 185.185394, 30.0 ]
				}

			}
, 			{
				"patchline" : 				{
					"source" : [ "obj-36", 0 ],
					"destination" : [ "obj-151", 0 ],
					"hidden" : 0,
					"midpoints" : [ 24.5, 30.0, 399.079071, 30.0 ]
				}

			}
, 			{
				"patchline" : 				{
					"source" : [ "obj-17", 0 ],
					"destination" : [ "obj-18", 0 ],
					"hidden" : 0,
					"midpoints" : [  ]
				}

			}
, 			{
				"patchline" : 				{
					"source" : [ "obj-13", 0 ],
					"destination" : [ "obj-17", 1 ],
					"hidden" : 0,
					"midpoints" : [  ]
				}

			}
, 			{
				"patchline" : 				{
					"source" : [ "obj-2", 0 ],
					"destination" : [ "obj-13", 0 ],
					"hidden" : 0,
					"midpoints" : [  ]
				}

			}
, 			{
				"patchline" : 				{
					"source" : [ "obj-151", 1 ],
					"destination" : [ "obj-7", 3 ],
					"hidden" : 0,
					"midpoints" : [ 455.079071, 184.0, 275.685394, 184.0 ]
				}

			}
, 			{
				"patchline" : 				{
					"source" : [ "obj-151", 1 ],
					"destination" : [ "obj-7", 4 ],
					"hidden" : 0,
					"midpoints" : [ 455.079071, 184.0, 289.185394, 184.0 ]
				}

			}
, 			{
				"patchline" : 				{
					"source" : [ "obj-151", 1 ],
					"destination" : [ "obj-7", 5 ],
					"hidden" : 0,
					"midpoints" : [ 455.079071, 184.0, 302.685394, 184.0 ]
				}

			}
, 			{
				"patchline" : 				{
					"source" : [ "obj-151", 1 ],
					"destination" : [ "obj-7", 6 ],
					"hidden" : 0,
					"midpoints" : [ 455.079071, 184.0, 316.185394, 184.0 ]
				}

			}
, 			{
				"patchline" : 				{
					"source" : [ "obj-7", 0 ],
					"destination" : [ "obj-8", 2 ],
					"hidden" : 0,
					"midpoints" : [  ]
				}

			}
, 			{
				"patchline" : 				{
					"source" : [ "obj-8", 0 ],
					"destination" : [ "obj-1", 0 ],
					"hidden" : 0,
					"midpoints" : [  ]
				}

			}
, 			{
				"patchline" : 				{
					"source" : [ "obj-89", 0 ],
					"destination" : [ "obj-8", 0 ],
					"hidden" : 0,
					"midpoints" : [ 25.12793, 219.0, 213.630707, 219.0 ]
				}

			}
, 			{
				"patchline" : 				{
					"source" : [ "obj-9", 0 ],
					"destination" : [ "obj-8", 0 ],
					"hidden" : 0,
					"midpoints" : [ 59.52652, 219.0, 213.630707, 219.0 ]
				}

			}
, 			{
				"patchline" : 				{
					"source" : [ "obj-12", 0 ],
					"destination" : [ "obj-14", 0 ],
					"hidden" : 0,
					"midpoints" : [  ]
				}

			}
, 			{
				"patchline" : 				{
					"source" : [ "obj-105", 0 ],
					"destination" : [ "obj-12", 9 ],
					"hidden" : 0,
					"midpoints" : [ 493.5, 211.0, 473.685394, 211.0 ]
				}

			}
, 			{
				"patchline" : 				{
					"source" : [ "obj-105", 0 ],
					"destination" : [ "obj-12", 8 ],
					"hidden" : 0,
					"midpoints" : [ 493.5, 211.0, 460.185394, 211.0 ]
				}

			}
, 			{
				"patchline" : 				{
					"source" : [ "obj-105", 0 ],
					"destination" : [ "obj-12", 7 ],
					"hidden" : 0,
					"midpoints" : [ 493.5, 211.0, 446.685394, 211.0 ]
				}

			}
, 			{
				"patchline" : 				{
					"source" : [ "obj-4", 0 ],
					"destination" : [ "obj-12", 0 ],
					"hidden" : 0,
					"midpoints" : [  ]
				}

			}
, 			{
				"patchline" : 				{
					"source" : [ "obj-4", 0 ],
					"destination" : [ "obj-7", 0 ],
					"hidden" : 0,
					"midpoints" : [  ]
				}

			}
, 			{
				"patchline" : 				{
					"source" : [ "obj-4", 0 ],
					"destination" : [ "obj-5", 0 ],
					"hidden" : 0,
					"midpoints" : [ 185.254059, 87.451782, 248.687775, 87.451782 ]
				}

			}
, 			{
				"patchline" : 				{
					"source" : [ "obj-4", 0 ],
					"destination" : [ "obj-3", 0 ],
					"hidden" : 0,
					"midpoints" : [ 185.254059, 87.055298, 313.946747, 87.055298 ]
				}

			}
, 			{
				"patchline" : 				{
					"source" : [ "obj-112", 0 ],
					"destination" : [ "obj-4", 0 ],
					"hidden" : 0,
					"midpoints" : [  ]
				}

			}
, 			{
				"patchline" : 				{
					"source" : [ "obj-4", 0 ],
					"destination" : [ "obj-85", 0 ],
					"hidden" : 0,
					"midpoints" : [  ]
				}

			}
 ]
	}

}
