{
	"patcher" : 	{
		"fileversion" : 1,
		"rect" : [ 185.0, 44.0, 184.0, 315.0 ],
		"bglocked" : 0,
		"defrect" : [ 185.0, 44.0, 184.0, 315.0 ],
		"openrect" : [ 0.0, 0.0, 0.0, 0.0 ],
		"openinpresentation" : 0,
		"default_fontsize" : 12.0,
		"default_fontface" : 0,
		"default_fontname" : "Arial",
		"gridonopen" : 0,
		"gridsize" : [ 15.0, 15.0 ],
		"gridsnaponopen" : 0,
		"toolbarvisible" : 1,
		"boxanimatetime" : 200,
		"imprint" : 0,
		"enablehscroll" : 1,
		"enablevscroll" : 1,
		"devicewidth" : 0.0,
		"boxes" : [ 			{
				"box" : 				{
					"maxclass" : "inlet",
					"patching_rect" : [ 80.0, 76.0, 25.0, 25.0 ],
					"id" : "obj-56",
					"numinlets" : 0,
					"numoutlets" : 1,
					"outlettype" : [ "" ],
					"comment" : ""
				}

			}
, 			{
				"box" : 				{
					"maxclass" : "newobj",
					"text" : "route populate",
					"fontsize" : 11.595187,
					"patching_rect" : [ 12.0, 42.0, 85.0, 20.0 ],
					"id" : "obj-55",
					"numinlets" : 1,
					"numoutlets" : 2,
					"outlettype" : [ "", "" ],
					"fontname" : "Arial"
				}

			}
, 			{
				"box" : 				{
					"maxclass" : "inlet",
					"patching_rect" : [ 147.0, 75.0, 25.0, 25.0 ],
					"id" : "obj-2",
					"numinlets" : 0,
					"numoutlets" : 1,
					"outlettype" : [ "" ],
					"comment" : ""
				}

			}
, 			{
				"box" : 				{
					"maxclass" : "newobj",
					"text" : "- 1",
					"fontsize" : 12.0,
					"patching_rect" : [ 102.0, 163.0, 32.5, 20.0 ],
					"id" : "obj-9",
					"numinlets" : 2,
					"numoutlets" : 1,
					"outlettype" : [ "int" ],
					"fontname" : "Arial"
				}

			}
, 			{
				"box" : 				{
					"maxclass" : "newobj",
					"text" : "%",
					"fontsize" : 12.0,
					"patching_rect" : [ 59.0, 231.0, 48.5, 20.0 ],
					"id" : "obj-21",
					"numinlets" : 2,
					"numoutlets" : 1,
					"outlettype" : [ "int" ],
					"fontname" : "Arial"
				}

			}
, 			{
				"box" : 				{
					"maxclass" : "newobj",
					"text" : "i",
					"fontsize" : 12.0,
					"patching_rect" : [ 74.0, 195.0, 46.5, 20.0 ],
					"id" : "obj-22",
					"numinlets" : 2,
					"numoutlets" : 1,
					"outlettype" : [ "int" ],
					"fontname" : "Arial"
				}

			}
, 			{
				"box" : 				{
					"maxclass" : "newobj",
					"text" : "sel -1",
					"fontsize" : 12.0,
					"patching_rect" : [ 38.0, 164.0, 40.0, 20.0 ],
					"id" : "obj-27",
					"numinlets" : 2,
					"numoutlets" : 2,
					"outlettype" : [ "bang", "" ],
					"fontname" : "Arial"
				}

			}
, 			{
				"box" : 				{
					"maxclass" : "newobj",
					"text" : "+",
					"fontsize" : 12.0,
					"patching_rect" : [ 38.0, 140.0, 32.5, 20.0 ],
					"id" : "obj-33",
					"numinlets" : 2,
					"numoutlets" : 1,
					"outlettype" : [ "int" ],
					"fontname" : "Arial"
				}

			}
, 			{
				"box" : 				{
					"maxclass" : "inlet",
					"patching_rect" : [ 12.0, 13.0, 25.0, 25.0 ],
					"id" : "obj-36",
					"numinlets" : 0,
					"numoutlets" : 1,
					"outlettype" : [ "" ],
					"comment" : ""
				}

			}
, 			{
				"box" : 				{
					"maxclass" : "newobj",
					"text" : "t 1",
					"fontsize" : 12.0,
					"patching_rect" : [ 80.0, 105.0, 24.0, 20.0 ],
					"id" : "obj-42",
					"numinlets" : 1,
					"numoutlets" : 1,
					"outlettype" : [ "int" ],
					"fontname" : "Arial"
				}

			}
, 			{
				"box" : 				{
					"maxclass" : "newobj",
					"text" : "t -1",
					"fontsize" : 12.0,
					"patching_rect" : [ 38.0, 105.0, 28.0, 20.0 ],
					"id" : "obj-43",
					"numinlets" : 1,
					"numoutlets" : 1,
					"outlettype" : [ "int" ],
					"fontname" : "Arial"
				}

			}
, 			{
				"box" : 				{
					"maxclass" : "outlet",
					"patching_rect" : [ 59.0, 261.0, 25.0, 25.0 ],
					"id" : "obj-53",
					"numinlets" : 1,
					"numoutlets" : 0,
					"comment" : ""
				}

			}
, 			{
				"box" : 				{
					"maxclass" : "inlet",
					"patching_rect" : [ 38.0, 76.0, 25.0, 25.0 ],
					"id" : "obj-54",
					"numinlets" : 0,
					"numoutlets" : 1,
					"outlettype" : [ "" ],
					"comment" : ""
				}

			}
 ],
		"lines" : [ 			{
				"patchline" : 				{
					"source" : [ "obj-56", 0 ],
					"destination" : [ "obj-42", 0 ],
					"hidden" : 0,
					"midpoints" : [  ]
				}

			}
, 			{
				"patchline" : 				{
					"source" : [ "obj-54", 0 ],
					"destination" : [ "obj-43", 0 ],
					"hidden" : 0,
					"midpoints" : [  ]
				}

			}
, 			{
				"patchline" : 				{
					"source" : [ "obj-2", 0 ],
					"destination" : [ "obj-21", 0 ],
					"hidden" : 0,
					"midpoints" : [ 156.5, 220.5, 68.5, 220.5 ]
				}

			}
, 			{
				"patchline" : 				{
					"source" : [ "obj-36", 0 ],
					"destination" : [ "obj-55", 0 ],
					"hidden" : 0,
					"midpoints" : [  ]
				}

			}
, 			{
				"patchline" : 				{
					"source" : [ "obj-55", 0 ],
					"destination" : [ "obj-9", 0 ],
					"hidden" : 0,
					"midpoints" : [ 21.5, 68.0, 111.5, 68.0 ]
				}

			}
, 			{
				"patchline" : 				{
					"source" : [ "obj-55", 0 ],
					"destination" : [ "obj-21", 1 ],
					"hidden" : 0,
					"midpoints" : [ 21.5, 224.0, 98.0, 224.0 ]
				}

			}
, 			{
				"patchline" : 				{
					"source" : [ "obj-33", 0 ],
					"destination" : [ "obj-27", 0 ],
					"hidden" : 0,
					"midpoints" : [  ]
				}

			}
, 			{
				"patchline" : 				{
					"source" : [ "obj-27", 1 ],
					"destination" : [ "obj-21", 0 ],
					"hidden" : 0,
					"midpoints" : [  ]
				}

			}
, 			{
				"patchline" : 				{
					"source" : [ "obj-21", 0 ],
					"destination" : [ "obj-33", 1 ],
					"hidden" : 0,
					"midpoints" : [ 68.5, 256.0, 141.0, 256.0, 141.0, 133.0, 61.0, 133.0 ]
				}

			}
, 			{
				"patchline" : 				{
					"source" : [ "obj-27", 0 ],
					"destination" : [ "obj-22", 0 ],
					"hidden" : 0,
					"midpoints" : [ 47.5, 189.0, 83.5, 189.0 ]
				}

			}
, 			{
				"patchline" : 				{
					"source" : [ "obj-22", 0 ],
					"destination" : [ "obj-21", 0 ],
					"hidden" : 0,
					"midpoints" : [ 83.5, 220.0, 68.5, 220.0 ]
				}

			}
, 			{
				"patchline" : 				{
					"source" : [ "obj-9", 0 ],
					"destination" : [ "obj-22", 1 ],
					"hidden" : 0,
					"midpoints" : [  ]
				}

			}
, 			{
				"patchline" : 				{
					"source" : [ "obj-43", 0 ],
					"destination" : [ "obj-33", 0 ],
					"hidden" : 0,
					"midpoints" : [  ]
				}

			}
, 			{
				"patchline" : 				{
					"source" : [ "obj-42", 0 ],
					"destination" : [ "obj-33", 0 ],
					"hidden" : 0,
					"midpoints" : [ 89.5, 129.5, 47.5, 129.5 ]
				}

			}
, 			{
				"patchline" : 				{
					"source" : [ "obj-21", 0 ],
					"destination" : [ "obj-53", 0 ],
					"hidden" : 0,
					"midpoints" : [  ]
				}

			}
 ]
	}

}
